<svg width="207" height="42" viewBox="0 0 207 42" fill="none" xmlns="http://www.w3.org/2000/svg">
<g clip-path="url(#clip0_551_147)">
<path d="M20.5114 41.6654C13.8019 41.4321 8.19766 38.8343 4.0412 33.452C0.865475 29.3143 -0.286503 24.5698 0.273919 19.3898C0.491861 17.3832 1.13012 15.5009 1.78394 13.6032C2.76468 10.7876 3.38737 7.87871 3.79212 4.92315C3.93223 3.84982 4.07233 2.79204 4.21244 1.71871C4.30584 1.06537 4.66389 0.629817 5.27101 0.396483C5.87814 0.16315 6.39186 0.365372 6.84331 0.769817C8.38447 2.16982 9.92563 3.56982 11.4668 4.96982C12.0428 5.49871 12.0428 5.51426 12.7589 5.17204C15.1407 4.0676 17.647 3.49204 20.2779 3.44537C23.2201 3.39871 26.0222 4.00537 28.6842 5.28093C28.9955 5.42093 29.1823 5.40537 29.447 5.17204C30.8947 3.81871 32.3736 2.48093 33.837 1.14315C34.1483 0.86315 34.4752 0.567595 34.8644 0.396483C35.7362 0.00759435 36.7325 0.629817 36.8726 1.62537C37.075 2.9476 37.2462 4.28537 37.433 5.6076C37.8377 8.39204 38.4916 11.1143 39.3789 13.7898C39.8771 15.2676 40.3285 16.7609 40.6399 18.2854C41.2626 21.3187 41.0135 24.3209 40.1417 27.292C38.694 32.1921 35.705 35.8787 31.4085 38.5543C28.7309 40.2187 25.8042 41.1676 22.6752 41.4787C21.9903 41.5409 21.3053 41.5721 20.5581 41.6343L20.5114 41.6654ZM35.4715 31.6165C34.5219 31.2121 33.6502 30.8387 32.7784 30.4809C32.0156 30.1543 31.6731 29.4854 31.9533 28.8009C32.218 28.132 32.9341 27.8832 33.6969 28.1943C34.2728 28.4276 34.8333 28.6765 35.4093 28.9098C35.8451 29.0965 36.281 29.2676 36.7013 29.4387C37.1684 28.692 37.9467 26.4365 37.9312 25.9543C37.2929 25.9543 36.6546 25.9543 36.0164 25.9543C35.0201 25.9543 34.0238 25.9543 33.043 25.9543C32.4203 25.9543 32 25.5343 31.9222 24.9743C31.7976 24.1187 32.3114 23.5432 33.261 23.5432C34.771 23.5432 36.2966 23.5432 37.8066 23.5432C38.5694 23.5432 38.4916 23.6987 38.5538 22.8276C38.7251 20.3076 38.2736 17.8809 37.4174 15.532C36.2499 12.312 35.4248 9.01427 34.9734 5.62315C34.8955 4.98537 34.8021 4.33204 34.7087 3.6476C34.5531 3.77204 34.4285 3.86537 34.3195 3.97426C33.6502 4.58093 32.9808 5.20315 32.3114 5.80982C31.5641 6.49426 30.8325 7.16315 30.0697 7.83204C29.4781 8.34538 29.3069 8.34538 28.6064 7.9876C27.9992 7.67649 27.3765 7.36538 26.7539 7.05426C26.6293 6.99204 26.5048 6.96093 26.3335 6.89871C26.3335 7.81649 26.3335 8.65649 26.3335 9.51204C26.3335 10.3054 25.7575 10.8498 25.0259 10.8032C24.3409 10.7565 23.905 10.212 23.905 9.40315C23.905 8.34538 23.905 7.30315 23.905 6.21426C21.6789 5.7476 19.4528 5.73204 17.1955 6.21426C17.1955 6.46315 17.1955 6.71204 17.1955 6.94538C17.1955 7.8476 17.2111 8.73426 17.1955 9.63649C17.18 10.3209 16.6507 10.7876 15.9502 10.772C15.3275 10.772 14.8449 10.3054 14.7982 9.65204C14.7826 9.34093 14.7982 9.02982 14.7982 8.70315C14.7982 8.1276 14.7982 7.55204 14.7982 6.89871C14.5335 7.0076 14.3312 7.06982 14.1288 7.17871C13.5684 7.45871 13.0079 7.73871 12.4475 8.01871C11.8715 8.31426 11.6536 8.28315 11.171 7.86315C9.91006 6.7276 8.64911 5.59204 7.38816 4.45649C7.09238 4.19204 6.79661 3.9276 6.45413 3.63204C6.37629 4.25426 6.29845 4.79871 6.23618 5.34315C5.86257 8.00315 5.34885 10.632 4.53935 13.1987C4.05677 14.7232 3.54305 16.2476 3.0916 17.8032C2.59344 19.5609 2.53117 21.3498 2.62458 23.1698C2.64014 23.4654 2.74911 23.5743 3.04489 23.5432C3.37181 23.512 3.69872 23.5432 4.02563 23.5432C5.37998 23.5432 6.73434 23.512 8.08869 23.5432C9.02273 23.5743 9.50531 24.6009 9.00716 25.3787C8.74251 25.7987 8.33777 25.9543 7.85518 25.9543C6.45413 25.9543 5.06864 25.9543 3.66758 25.9543C3.49634 25.9543 3.3251 25.9543 3.01376 25.9543C3.48078 27.1832 3.90109 28.3187 4.33698 29.4854C4.60162 29.3765 4.78843 29.3143 4.95967 29.2365C5.7536 28.8943 6.53196 28.5365 7.32589 28.2254C7.62167 28.1165 7.99529 28.0543 8.30663 28.1009C8.80478 28.1632 9.16283 28.5987 9.20953 29.0654C9.2718 29.6098 9.06943 30.0765 8.55571 30.3254C8.04199 30.5898 7.49713 30.792 6.95228 31.0254C6.53196 31.1965 6.11165 31.3832 5.61349 31.5854C9.34964 36.2987 14.051 39.0054 20.0755 39.1765C26.4892 39.3476 31.5641 36.7032 35.5182 31.6009L35.4715 31.6165Z" fill="#282828"/>
<path d="M23.2361 29.2832C23.096 29.2832 22.9714 29.2832 22.8313 29.252C22.1775 29.1276 21.6171 28.8009 21.1033 28.272L20.5118 27.6343L20.2004 27.9921C19.5933 28.7076 18.9551 29.112 18.2078 29.2365C18.0677 29.2676 17.9276 29.2676 17.8031 29.2676C16.8223 29.2676 15.826 28.6609 15.4524 27.8209C15.2812 27.432 15.3123 27.0898 15.5458 26.7787C15.6859 26.592 15.8727 26.4987 16.0751 26.4987C16.2931 26.4987 16.4954 26.6387 16.6355 26.872C16.9936 27.4943 17.4139 27.8054 17.8965 27.8054C18.3168 27.8054 18.7215 27.5565 19.1107 27.0587C19.4065 26.6854 19.5466 26.2032 19.6712 25.7832L19.7179 25.6432C19.8268 25.2698 19.5933 24.8809 19.531 24.7565C19.1574 24.1965 19.2508 23.4965 19.7334 23.0609C19.9514 22.8743 20.2627 22.7654 20.5741 22.7654C20.8854 22.7654 21.1656 22.8587 21.3836 23.0454C21.8817 23.4654 21.9907 24.1498 21.6326 24.6787C21.3369 25.1143 21.368 25.5343 21.4458 25.892C21.5859 26.6076 21.9595 27.1676 22.5511 27.5409C22.8157 27.712 23.0804 27.7898 23.3295 27.7898C23.5941 27.7898 24.1078 27.6809 24.4347 26.9654C24.6527 26.5143 24.9329 26.5143 25.0263 26.5143C25.0574 26.5143 25.0886 26.5143 25.1197 26.5143C25.3843 26.5454 25.6957 26.7165 25.7424 27.0898C25.7735 27.3854 25.7113 27.6965 25.6179 27.9143C25.2442 28.692 24.2324 29.2676 23.2516 29.2676L23.2361 29.2832Z" fill="#282828"/>
<path d="M12.9613 17.3054C14.0199 17.3054 14.9228 18.2076 14.9228 19.2654C14.9228 20.3698 14.0199 21.2876 12.9302 21.2876C11.856 21.2876 10.9531 20.3854 10.9531 19.2965C10.9531 18.1765 11.8249 17.2898 12.9457 17.3054H12.9613Z" fill="#282828"/>
<path d="M26.0996 19.3276C26.0996 18.1921 26.9869 17.3054 28.1233 17.3054C29.1819 17.3054 30.0692 18.2076 30.0692 19.2965C30.0692 20.3854 29.1352 21.3032 28.0455 21.3032C26.9869 21.3032 26.084 20.3854 26.084 19.3276H26.0996Z" fill="#282828"/>
<path d="M70.3091 8.67186C69.7019 6.35408 71.2898 4.50297 73.5315 4.78297C74.7457 4.93852 75.851 6.15185 75.96 7.36519C76.1468 9.52741 74.4033 11.0363 72.1304 10.4607C71.2431 10.243 70.527 9.54297 70.3091 8.6563V8.67186ZM70.8851 12.9341H75.2594V31.0719H71.9748C71.3676 31.0719 70.8851 30.5896 70.8851 29.983V12.9341Z" fill="#282828"/>
<path d="M79.292 24.1031V7.17865C79.292 6.80532 79.5878 6.50977 79.9614 6.50977H82.997C83.3706 6.50977 83.6664 6.80532 83.6664 7.17865V12.2653C83.6664 12.6387 83.9622 12.9342 84.3358 12.9342H92.3685C92.7421 12.9342 93.0379 13.2298 93.0379 13.6031V16.232C93.0379 16.6053 92.7421 16.9009 92.3685 16.9009H84.3358C83.9622 16.9009 83.6664 17.1964 83.6664 17.5698V24.1031C83.6664 26.5298 84.9118 27.4787 86.7176 27.4787C88.5234 27.4787 89.7688 26.5609 89.7688 24.1031V23.6209H94.1432V24.1031C94.1432 29.1276 91.1231 31.5542 86.7176 31.5542C82.312 31.5542 79.292 29.1276 79.292 24.1031Z" fill="#282828"/>
<path d="M96.7432 24.1031V7.17865C96.7432 6.80532 97.0389 6.50977 97.4126 6.50977H100.448C100.822 6.50977 101.118 6.80532 101.118 7.17865V12.2653C101.118 12.6387 101.413 12.9342 101.787 12.9342H109.82C110.193 12.9342 110.489 13.2298 110.489 13.6031V16.232C110.489 16.6053 110.193 16.9009 109.82 16.9009H101.787C101.413 16.9009 101.118 17.1964 101.118 17.5698V24.0875C101.118 26.5142 102.363 27.4631 104.169 27.4631C105.975 27.4631 107.22 26.5453 107.22 24.0875V23.6053H111.594V24.0875C111.594 29.112 108.574 31.5387 104.169 31.5387C99.7632 31.5387 96.7432 29.112 96.7432 24.0875V24.1031Z" fill="#282828"/>
<path d="M132.126 30.4498C132.126 32.9698 131.426 35.5676 129.464 37.2632C127.814 38.6943 125.604 39.2232 123.471 39.3009C119.937 39.4098 116.279 38.8343 112.885 37.8854C111.453 37.4809 110.021 36.9987 108.76 36.1898C107.499 35.3809 106.409 34.2454 105.896 32.8454C106.549 33.5143 107.655 33.5765 108.542 33.2498C109.429 32.9232 110.161 32.3009 110.908 31.7409C111.655 31.1809 112.496 30.6365 113.43 30.5432C114.644 30.4187 115.812 31.072 116.73 31.8654C117.649 32.6587 118.458 33.6076 119.455 34.292C121.12 35.4276 123.813 35.972 125.65 34.9765C127.378 34.0432 127.845 31.9432 127.752 30.1543C127.721 29.5943 127.051 29.3454 126.647 29.7343C125.541 30.7765 124.078 31.3209 122.366 31.3209C118.178 31.3209 114.208 28.5987 114.208 22.1431V13.572C114.208 13.2143 114.504 12.9187 114.862 12.9187H117.945C118.303 12.9187 118.598 13.2143 118.598 13.572V22.1431C118.598 25.5965 120.435 27.2454 123.191 27.2454C125.946 27.2454 127.783 25.5187 127.783 22.1431V13.572C127.783 13.2143 128.079 12.9187 128.437 12.9187H131.519C131.877 12.9187 132.173 13.2143 132.173 13.572V30.4343L132.126 30.4498Z" fill="#282828"/>
<path d="M136.127 20.1832C136.127 14.3343 140.439 10.0254 146.526 10.0254C151.352 10.0254 155.072 12.7165 156.396 16.7765C156.505 17.1343 156.255 17.4921 155.882 17.4921H152.908C152.691 17.4921 152.504 17.3676 152.426 17.1654C151.43 14.9876 149.297 13.5721 146.526 13.5721C142.634 13.5721 140.003 16.3565 140.003 20.1676C140.003 23.9787 142.634 26.7943 146.526 26.7943C149.297 26.7943 151.43 25.3476 152.426 23.1698C152.519 22.9832 152.706 22.8432 152.908 22.8432H155.882C156.255 22.8432 156.505 23.2009 156.396 23.5587C155.072 27.6187 151.367 30.3098 146.526 30.3098C140.424 30.3098 136.127 26.001 136.127 20.1521V20.1832Z" fill="#282828"/>
<path d="M158.326 21.8008C158.622 18.3786 161.704 15.2364 165.129 14.863C170.359 14.303 174.142 17.5541 174.142 22.6875V29.5786C174.142 29.7808 173.971 29.9519 173.769 29.9519H171.247C171.044 29.9519 170.873 29.7808 170.873 29.5786V27.4319C170.873 27.3386 170.749 27.323 170.717 27.4008C169.752 29.3453 167.853 30.3408 165.642 30.3408C161.844 30.3408 157.843 27.463 158.326 21.8008ZM170.562 22.8586C170.686 20.1053 168.912 18.1141 166.203 18.1297C163.899 18.1297 161.984 20.0275 161.875 22.3142C161.751 25.0675 163.572 27.043 166.265 27.0275C168.554 27.0119 170.453 25.1453 170.562 22.8586Z" fill="#282828"/>
<path d="M176.914 21.3809C176.914 16.932 179.545 14.8164 183.406 14.8164C187.266 14.8164 189.866 16.932 189.866 21.4431V21.5364H186.332V21.3809C186.332 18.9853 185.134 18.1297 183.406 18.1297C181.678 18.1297 180.479 19.0009 180.479 21.3809V29.3764C180.479 29.6875 180.23 29.952 179.903 29.952H177.49C177.179 29.952 176.914 29.7031 176.914 29.3764V21.3809Z" fill="#282828"/>
<path d="M191.017 22.5786C191.017 18.0986 194.301 14.8164 198.971 14.8164C203.642 14.8164 206.864 18.0986 206.864 22.5786V23.5275C206.864 23.6986 206.724 23.8231 206.568 23.8231H195.157C194.955 23.8231 194.815 24.0097 194.862 24.1964C195.438 26.0942 197.01 27.1053 198.971 27.1053C200.497 27.1053 201.633 26.6853 202.381 25.8142C202.443 25.752 202.521 25.7053 202.599 25.7053H205.805C206.023 25.7053 206.179 25.9231 206.086 26.1253C204.887 28.692 202.287 30.3409 198.971 30.3409C194.301 30.3409 191.017 27.0586 191.017 22.5786ZM202.676 20.992C202.879 20.992 203.035 20.7897 202.957 20.6031C202.303 18.892 200.777 18.0364 198.971 18.0364C197.166 18.0364 195.64 18.9075 194.986 20.6031C194.908 20.7897 195.064 20.992 195.266 20.992H202.676Z" fill="#282828"/>
<path d="M50.5078 7.67627H55.0845V17.9118L63.4597 7.67627H69.2196L59.2566 19.1563L69.5777 31.0718H63.6621L55.069 20.5563V31.0718H50.4922V7.67627H50.5078Z" fill="#282828"/>
</g>
<defs>
<clipPath id="clip0_551_147">
<rect width="206.733" height="41.3467" fill="white" transform="translate(0.132812 0.318604)"/>
</clipPath>
</defs>
</svg>
