<svg width="17" height="16" viewBox="0 0 17 16" fill="none" xmlns="http://www.w3.org/2000/svg">
<path d="M8.57117 15.9164C6.06817 15.8293 3.9775 14.8602 2.42692 12.8524C1.2422 11.3088 0.812455 9.53883 1.02152 7.60641C1.10283 6.85782 1.34093 6.15565 1.58484 5.44768C1.95071 4.39733 2.18301 3.31216 2.334 2.20958C2.38627 1.80917 2.43853 1.41456 2.4908 1.01415C2.52564 0.770421 2.65921 0.607935 2.8857 0.52089C3.11219 0.433844 3.30384 0.509284 3.47225 0.660163C4.04719 1.18244 4.62212 1.70471 5.19706 2.22699C5.41193 2.42429 5.41193 2.43009 5.67907 2.30243C6.56761 1.89041 7.5026 1.6757 8.48406 1.65829C9.58166 1.64088 10.627 1.8672 11.6201 2.34305C11.7362 2.39527 11.8059 2.38947 11.9046 2.30243C12.4447 1.79756 12.9964 1.2985 13.5423 0.799436C13.6585 0.694981 13.7804 0.584723 13.9256 0.52089C14.2508 0.375813 14.6225 0.607935 14.6748 0.979331C14.7503 1.47259 14.8141 1.97165 14.8838 2.46491C15.0348 3.50366 15.2787 4.51919 15.6098 5.51732C15.7956 6.06861 15.964 6.6257 16.0802 7.1944C16.3125 8.32599 16.2195 9.44598 15.8943 10.5544C15.3542 12.3823 14.2392 13.7576 12.6364 14.7558C11.6375 15.3767 10.5457 15.7307 9.3784 15.8467C9.12287 15.87 8.86735 15.8816 8.58859 15.9048L8.57117 15.9164ZM14.1521 12.1676C13.7978 12.0167 13.4726 11.8775 13.1474 11.744C12.8629 11.6221 12.7351 11.3726 12.8396 11.1173C12.9383 10.8677 13.2055 10.7749 13.4901 10.8909C13.7049 10.978 13.914 11.0708 14.1289 11.1579C14.2915 11.2275 14.4541 11.2914 14.6109 11.3552C14.7851 11.0766 15.0755 10.2352 15.0697 10.0553C14.8316 10.0553 14.5935 10.0553 14.3554 10.0553C13.9837 10.0553 13.612 10.0553 13.2461 10.0553C13.0138 10.0553 12.857 9.89862 12.828 9.68971C12.7815 9.37054 12.9732 9.15583 13.3274 9.15583C13.8908 9.15583 14.4599 9.15583 15.0232 9.15583C15.3078 9.15583 15.2787 9.21386 15.302 8.88889C15.3658 7.94879 15.1974 7.04352 14.878 6.16726C14.4425 4.96603 14.1347 3.73578 13.9663 2.47071C13.9372 2.23279 13.9024 1.98906 13.8675 1.73373C13.8095 1.78015 13.763 1.81497 13.7223 1.85559C13.4726 2.08191 13.2229 2.31403 12.9732 2.54035C12.6944 2.79569 12.4215 3.04522 12.1369 3.29475C11.9162 3.48625 11.8524 3.48625 11.591 3.35278C11.3645 3.23672 11.1322 3.12066 10.8999 3.0046C10.8535 2.98138 10.807 2.96978 10.7431 2.94656C10.7431 3.28894 10.7431 3.60231 10.7431 3.92148C10.7431 4.21743 10.5283 4.42054 10.2553 4.40313C9.99979 4.38572 9.83718 4.18261 9.83718 3.88086C9.83718 3.48625 9.83718 3.09744 9.83718 2.69123C9.00672 2.51714 8.17626 2.51134 7.33419 2.69123C7.33419 2.78408 7.33419 2.87693 7.33419 2.96397C7.33419 3.30055 7.33999 3.63132 7.33419 3.9679C7.32838 4.22324 7.13093 4.39733 6.86959 4.39152C6.6373 4.39152 6.45727 4.21743 6.43984 3.9737C6.43404 3.85764 6.43984 3.74158 6.43984 3.61972C6.43984 3.40501 6.43984 3.19029 6.43984 2.94656C6.34112 2.98719 6.26562 3.0104 6.19012 3.05102C5.98106 3.15547 5.77199 3.25993 5.56292 3.36438C5.34805 3.47464 5.26675 3.46304 5.08672 3.30635C4.61631 2.88273 4.14591 2.45911 3.67551 2.03549C3.56517 1.93683 3.45483 1.83818 3.32707 1.72792C3.29803 1.96005 3.26899 2.16315 3.24576 2.36626C3.10639 3.35858 2.91474 4.3393 2.61275 5.2968C2.43272 5.8655 2.24108 6.4342 2.07266 7.0145C1.88683 7.67025 1.8636 8.3376 1.89844 9.01655C1.90425 9.12681 1.9449 9.16743 2.05524 9.15583C2.1772 9.14422 2.29915 9.15583 2.42111 9.15583C2.92636 9.15583 3.4316 9.14422 3.93685 9.15583C4.28529 9.16743 4.46532 9.55044 4.27948 9.84059C4.18076 9.99727 4.02976 10.0553 3.84973 10.0553C3.32707 10.0553 2.81021 10.0553 2.28754 10.0553C2.22366 10.0553 2.15978 10.0553 2.04363 10.0553C2.21785 10.5137 2.37465 10.9374 2.53726 11.3726C2.63598 11.332 2.70567 11.3088 2.76955 11.2797C3.06573 11.1521 3.3561 11.0186 3.65228 10.9025C3.76262 10.8619 3.902 10.8387 4.01815 10.8561C4.20399 10.8793 4.33756 11.0418 4.35498 11.2159C4.37821 11.419 4.30271 11.5931 4.11107 11.686C3.91942 11.7846 3.71616 11.86 3.5129 11.9471C3.3561 12.0109 3.1993 12.0806 3.01347 12.156C4.40725 13.9143 6.16109 14.9241 8.40856 14.9879C10.8012 15.0517 12.6944 14.0652 14.1695 12.1618L14.1521 12.1676Z" fill="white"/>
<path d="M9.58878 11.2971C9.53651 11.2971 9.49006 11.2971 9.43779 11.2855C9.19388 11.239 8.98481 11.1172 8.79317 10.9199L8.57248 10.682L8.45633 10.8154C8.22985 11.0824 7.99174 11.2332 7.71298 11.2797C7.66072 11.2913 7.60845 11.2913 7.56199 11.2913C7.19612 11.2913 6.82445 11.065 6.68507 10.7516C6.62119 10.6065 6.6328 10.4788 6.71992 10.3628C6.77218 10.2932 6.84187 10.2583 6.91737 10.2583C6.99867 10.2583 7.07417 10.3106 7.12644 10.3976C7.26001 10.6297 7.41681 10.7458 7.59684 10.7458C7.75364 10.7458 7.90463 10.6529 8.04982 10.4672C8.16016 10.328 8.21242 10.1481 8.25888 9.99139L8.2763 9.93917C8.31696 9.79989 8.22985 9.65482 8.20662 9.60839C8.06724 9.39948 8.10208 9.13834 8.28211 8.97586C8.36342 8.90622 8.47956 8.8656 8.59571 8.8656C8.71186 8.8656 8.81639 8.90042 8.8977 8.97006C9.08354 9.12674 9.12419 9.38207 8.99062 9.57938C8.88028 9.74186 8.89189 9.89854 8.92093 10.032C8.97319 10.299 9.11257 10.5079 9.33325 10.6471C9.43198 10.711 9.53071 10.74 9.62363 10.74C9.72235 10.74 9.914 10.6994 10.036 10.4324C10.1173 10.2641 10.2218 10.2641 10.2566 10.2641C10.2682 10.2641 10.2799 10.2641 10.2915 10.2641C10.3902 10.2757 10.5064 10.3396 10.5238 10.4788C10.5354 10.5891 10.5122 10.7052 10.4773 10.7864C10.3379 11.0766 9.96046 11.2913 9.59459 11.2913L9.58878 11.2971Z" fill="white"/>
<path d="M5.75502 6.82881C6.14992 6.82881 6.48675 7.16539 6.48675 7.56C6.48675 7.97201 6.14992 8.31439 5.7434 8.31439C5.34269 8.31439 5.00586 7.97781 5.00586 7.5716C5.00586 7.15378 5.33107 6.82301 5.74921 6.82881H5.75502Z" fill="white"/>
<path d="M10.6562 7.58325C10.6562 7.15963 10.9872 6.82886 11.4112 6.82886C11.8061 6.82886 12.1371 7.16543 12.1371 7.57165C12.1371 7.97786 11.7886 8.32024 11.3821 8.32024C10.9872 8.32024 10.6504 7.97786 10.6504 7.58325H10.6562Z" fill="white"/>
</svg>
