<svg width="151" height="30" viewBox="0 0 151 30" fill="none" xmlns="http://www.w3.org/2000/svg">
<g clip-path="url(#clip0_975_162)">
<path d="M15.5951 30.0003C10.7269 29.831 6.66059 27.9461 3.64477 24.0409C1.34056 21.0386 0.504713 17.5962 0.91134 13.8377C1.06947 12.3818 1.53257 11.0161 2.00697 9.6391C2.71857 7.59621 3.17038 5.4856 3.46405 3.34113C3.56571 2.56235 3.66736 1.79486 3.76902 1.01607C3.83679 0.542034 4.09658 0.226007 4.53709 0.056707C4.9776 -0.112593 5.35035 0.0341336 5.67791 0.327587C6.79613 1.34339 7.91435 2.35919 9.03257 3.37499C9.4505 3.75874 9.4505 3.77003 9.97007 3.52172C11.6982 2.72036 13.5168 2.30276 15.4256 2.2689C17.5604 2.23504 19.5936 2.67522 21.525 3.60073C21.7509 3.70231 21.8865 3.69102 22.0785 3.52172C23.129 2.53978 24.202 1.56912 25.2638 0.598468C25.4897 0.395307 25.7269 0.18086 26.0092 0.056707C26.6418 -0.22546 27.3647 0.226007 27.4663 0.948355C27.6131 1.90772 27.7374 2.87838 27.8729 3.83775C28.1666 5.85806 28.641 7.83323 29.2848 9.77454C29.6463 10.8468 29.9738 11.9303 30.1997 13.0364C30.6516 15.2373 30.4708 17.4156 29.8383 19.5714C28.7878 23.1267 26.6192 25.8016 23.5017 27.7429C21.5589 28.9506 19.4354 29.6391 17.1651 29.8648C16.6681 29.91 16.1711 29.9326 15.629 29.9777L15.5951 30.0003ZM26.4497 22.7091C25.7607 22.4156 25.1282 22.1447 24.4957 21.8851C23.9422 21.6481 23.6937 21.1628 23.897 20.6662C24.0891 20.1809 24.6086 20.0003 25.1621 20.226C25.58 20.3953 25.9866 20.5759 26.4046 20.7452C26.7208 20.8806 27.0371 21.0048 27.3421 21.1289C27.6809 20.5872 28.2457 18.9506 28.2344 18.6007C27.7713 18.6007 27.3082 18.6007 26.8451 18.6007C26.1222 18.6007 25.3993 18.6007 24.6877 18.6007C24.2359 18.6007 23.9309 18.296 23.8744 17.8897C23.7841 17.2689 24.1568 16.8513 24.8458 16.8513C25.9415 16.8513 27.0484 16.8513 28.144 16.8513C28.6975 16.8513 28.641 16.9642 28.6862 16.3321C28.8104 14.5037 28.4829 12.7429 27.8616 11.0386C27.0145 8.7023 26.4159 6.30953 26.0883 3.84903C26.0318 3.38628 25.9641 2.91224 25.8963 2.41562C25.7833 2.50592 25.693 2.57364 25.6139 2.65264C25.1282 3.09282 24.6425 3.54429 24.1568 3.98447C23.6147 4.48109 23.0838 4.96641 22.5303 5.45174C22.1011 5.8242 21.9769 5.8242 21.4686 5.56461C21.0281 5.33887 20.5763 5.11314 20.1244 4.88741C20.0341 4.84226 19.9437 4.81969 19.8195 4.77454C19.8195 5.44045 19.8195 6.04993 19.8195 6.6707C19.8195 7.24632 19.4016 7.64136 18.8707 7.6075C18.3737 7.57364 18.0574 7.1786 18.0574 6.5917C18.0574 5.8242 18.0574 5.06799 18.0574 4.27793C16.4422 3.93933 14.827 3.92804 13.1892 4.27793C13.1892 4.45851 13.1892 4.6391 13.1892 4.8084C13.1892 5.46303 13.2005 6.10637 13.1892 6.761C13.1779 7.25761 12.7939 7.59621 12.2856 7.58492C11.8338 7.58492 11.4836 7.24632 11.4497 6.77228C11.4384 6.54655 11.4497 6.32082 11.4497 6.0838C11.4497 5.66619 11.4497 5.24858 11.4497 4.77454C11.2577 4.85355 11.1109 4.89869 10.9641 4.9777C10.5574 5.18086 10.1508 5.38402 9.74417 5.58718C9.32625 5.80163 9.16812 5.77905 8.81797 5.47431C7.90306 4.65039 6.98815 3.82646 6.07324 3.00253C5.85863 2.81066 5.64402 2.61878 5.39553 2.40434C5.33905 2.8558 5.28258 3.25084 5.23739 3.64587C4.96631 5.57589 4.59357 7.48334 4.00622 9.34565C3.65607 10.4517 3.28333 11.5578 2.95577 12.6865C2.59432 13.9619 2.54914 15.2599 2.61691 16.5804C2.62821 16.7949 2.70727 16.8739 2.92188 16.8513C3.15908 16.8287 3.39628 16.8513 3.63348 16.8513C4.61616 16.8513 5.59884 16.8287 6.58152 16.8513C7.25923 16.8739 7.60938 17.6188 7.24794 18.1831C7.05592 18.4879 6.76224 18.6007 6.41209 18.6007C5.39553 18.6007 4.39026 18.6007 3.37369 18.6007C3.24944 18.6007 3.1252 18.6007 2.89929 18.6007C3.23815 19.4924 3.54312 20.3163 3.85938 21.1628C4.0514 21.0838 4.18694 21.0386 4.31119 20.9822C4.88724 20.7339 5.452 20.4743 6.02806 20.2486C6.24266 20.1696 6.51375 20.1244 6.73965 20.1583C7.1011 20.2034 7.36089 20.5195 7.39477 20.8581C7.43995 21.2531 7.29312 21.5917 6.92038 21.7723C6.54763 21.9642 6.1523 22.1109 5.75697 22.2802C5.452 22.4043 5.14703 22.5398 4.78559 22.6865C7.49643 26.1064 10.9076 28.0702 15.2788 28.1944C19.9324 28.3186 23.6147 26.3998 26.4836 22.6978L26.4497 22.7091Z" fill="#282828"/>
<path d="M17.5721 21.0162C17.4705 21.0162 17.3801 21.0162 17.2785 20.9937C16.8041 20.9034 16.3974 20.6663 16.0247 20.2826L15.5955 19.8198L15.3696 20.0794C14.9291 20.5986 14.466 20.8921 13.9238 20.9824C13.8221 21.0049 13.7205 21.0049 13.6301 21.0049C12.9185 21.0049 12.1956 20.5648 11.9246 19.9553C11.8003 19.6731 11.8229 19.4248 11.9923 19.1991C12.094 19.0636 12.2295 18.9959 12.3764 18.9959C12.5345 18.9959 12.6813 19.0975 12.783 19.2668C13.0428 19.7183 13.3477 19.944 13.6979 19.944C14.0029 19.944 14.2965 19.7634 14.5789 19.4022C14.7935 19.1314 14.8952 18.7815 14.9855 18.4767L15.0194 18.3751C15.0985 18.1043 14.9291 17.8221 14.8839 17.7318C14.6128 17.3255 14.6806 16.8176 15.0307 16.5016C15.1889 16.3661 15.4148 16.2871 15.6407 16.2871C15.8666 16.2871 16.0699 16.3548 16.228 16.4903C16.5895 16.795 16.6685 17.2916 16.4087 17.6754C16.1941 17.9914 16.2167 18.2961 16.2732 18.5557C16.3749 19.0749 16.6459 19.4812 17.0752 19.7521C17.2672 19.8763 17.4592 19.9327 17.6399 19.9327C17.8319 19.9327 18.2047 19.8537 18.4419 19.3345C18.6 19.0072 18.8033 19.0072 18.8711 19.0072C18.8937 19.0072 18.9163 19.0072 18.9389 19.0072C19.1309 19.0298 19.3568 19.1539 19.3907 19.4248C19.4133 19.6393 19.3681 19.865 19.3003 20.023C19.0292 20.5873 18.295 21.0049 17.5834 21.0049L17.5721 21.0162Z" fill="#282828"/>
<path d="M10.1172 12.3253C10.8853 12.3253 11.5404 12.98 11.5404 13.7475C11.5404 14.5488 10.8853 15.2147 10.0946 15.2147C9.31528 15.2147 8.66016 14.5601 8.66016 13.77C8.66016 12.9574 9.29269 12.3141 10.1059 12.3253H10.1172Z" fill="#282828"/>
<path d="M19.65 13.7925C19.65 12.9685 20.2938 12.3252 21.1183 12.3252C21.8864 12.3252 22.5302 12.9798 22.5302 13.7699C22.5302 14.56 21.8525 15.2259 21.0619 15.2259C20.2938 15.2259 19.6387 14.56 19.6387 13.7925H19.65Z" fill="#282828"/>
<path d="M51.7254 6.0608C51.2849 4.37908 52.437 3.03597 54.0635 3.23913C54.9446 3.35199 55.7465 4.23235 55.8256 5.11272C55.9611 6.68156 54.6961 7.77637 53.047 7.35876C52.4031 7.20075 51.8836 6.69285 51.7254 6.04951V6.0608ZM52.1434 9.15335H55.3173V22.3136H52.934C52.4935 22.3136 52.1434 21.9637 52.1434 21.5236V9.15335Z" fill="#282828"/>
<path d="M58.2441 17.2574V4.97751C58.2441 4.70663 58.4587 4.49219 58.7298 4.49219H60.9324C61.2035 4.49219 61.4181 4.70663 61.4181 4.97751V8.66826C61.4181 8.93914 61.6327 9.15359 61.9038 9.15359H67.7321C68.0032 9.15359 68.2178 9.36803 68.2178 9.63891V11.5464C68.2178 11.8172 68.0032 12.0317 67.7321 12.0317H61.9038C61.6327 12.0317 61.4181 12.2461 61.4181 12.517V17.2574C61.4181 19.0181 62.3217 19.7066 63.6319 19.7066C64.9422 19.7066 65.8458 19.0407 65.8458 17.2574V16.9075H69.0197V17.2574C69.0197 20.903 66.8285 22.6637 63.6319 22.6637C60.4354 22.6637 58.2441 20.903 58.2441 17.2574Z" fill="#282828"/>
<path d="M70.9062 17.2574V4.97751C70.9062 4.70663 71.1209 4.49219 71.3919 4.49219H73.5945C73.8656 4.49219 74.0802 4.70663 74.0802 4.97751V8.66826C74.0802 8.93914 74.2948 9.15359 74.5659 9.15359H80.3942C80.6653 9.15359 80.8799 9.36803 80.8799 9.63891V11.5464C80.8799 11.8172 80.6653 12.0317 80.3942 12.0317H74.5659C74.2948 12.0317 74.0802 12.2461 74.0802 12.517V17.2461C74.0802 19.0069 74.9838 19.6953 76.2941 19.6953C77.6043 19.6953 78.5079 19.0294 78.5079 17.2461V16.8963H81.6818V17.2461C81.6818 20.8917 79.4906 22.6525 76.2941 22.6525C73.0975 22.6525 70.9062 20.8917 70.9062 17.2461V17.2574Z" fill="#282828"/>
<path d="M96.5793 21.8627C96.5793 23.6911 96.071 25.576 94.6478 26.8062C93.4505 27.8446 91.8466 28.2284 90.2991 28.2848C87.7351 28.3638 85.0808 27.9462 82.6184 27.2577C81.5793 26.9642 80.5401 26.6144 79.6252 26.0275C78.7103 25.4405 77.9196 24.6166 77.5469 23.6008C78.0213 24.0861 78.8232 24.1313 79.4671 23.8943C80.1109 23.6573 80.6418 23.2058 81.1839 22.7995C81.7261 22.3931 82.336 21.9981 83.0137 21.9304C83.8948 21.8401 84.7419 22.3141 85.4083 22.8898C86.0747 23.4654 86.6621 24.1539 87.385 24.6505C88.5936 25.4744 90.5476 25.8694 91.8805 25.1471C93.1342 24.4699 93.4731 22.9462 93.4053 21.6482C93.3827 21.2419 92.897 21.0613 92.6033 21.3435C91.8014 22.0997 90.7396 22.4947 89.4972 22.4947C86.4588 22.4947 83.5785 20.5196 83.5785 15.8356V9.61662C83.5785 9.35703 83.7931 9.14258 84.0529 9.14258H86.2893C86.5491 9.14258 86.7637 9.35703 86.7637 9.61662V15.8356C86.7637 18.3412 88.0966 19.5376 90.0958 19.5376C92.0951 19.5376 93.4279 18.2848 93.4279 15.8356V9.61662C93.4279 9.35703 93.6425 9.14258 93.9023 9.14258H96.1387C96.3985 9.14258 96.6131 9.35703 96.6131 9.61662V21.8514L96.5793 21.8627Z" fill="#282828"/>
<path d="M99.4824 14.4132C99.4824 10.1694 102.611 7.04297 107.028 7.04297C110.529 7.04297 113.229 8.99557 114.189 11.9414C114.268 12.201 114.087 12.4606 113.816 12.4606H111.659C111.5 12.4606 111.365 12.3703 111.308 12.2236C110.586 10.6434 109.038 9.61633 107.028 9.61633C104.204 9.61633 102.295 11.6366 102.295 14.4019C102.295 17.1671 104.204 19.21 107.028 19.21C109.038 19.21 110.586 18.1603 111.308 16.5802C111.376 16.4448 111.512 16.3432 111.659 16.3432H113.816C114.087 16.3432 114.268 16.6028 114.189 16.8624C113.229 19.8082 110.54 21.7608 107.028 21.7608C102.6 21.7608 99.4824 18.6344 99.4824 14.3906V14.4132Z" fill="#282828"/>
<path d="M115.589 15.587C115.804 13.104 118.04 10.824 120.525 10.5532C124.321 10.1468 127.065 12.5058 127.065 16.2304V21.2304C127.065 21.3771 126.941 21.5012 126.794 21.5012H124.964C124.818 21.5012 124.693 21.3771 124.693 21.2304V19.6728C124.693 19.6051 124.603 19.5938 124.58 19.6502C123.88 21.0611 122.502 21.7834 120.898 21.7834C118.142 21.7834 115.239 19.6954 115.589 15.587ZM124.467 16.3545C124.558 14.3568 123.27 12.9121 121.305 12.9234C119.633 12.9234 118.244 14.3003 118.165 15.9595C118.074 17.9572 119.396 19.3906 121.35 19.3793C123.01 19.3681 124.388 18.0137 124.467 16.3545Z" fill="#282828"/>
<path d="M129.076 15.2825C129.076 12.0545 130.985 10.5195 133.786 10.5195C136.587 10.5195 138.474 12.0545 138.474 15.3277V15.3954H135.91V15.2825C135.91 13.5444 135.04 12.9236 133.786 12.9236C132.533 12.9236 131.663 13.5556 131.663 15.2825V21.0839C131.663 21.3096 131.482 21.5015 131.245 21.5015H129.494C129.268 21.5015 129.076 21.3209 129.076 21.0839V15.2825Z" fill="#282828"/>
<path d="M139.309 16.1516C139.309 12.901 141.692 10.5195 145.08 10.5195C148.469 10.5195 150.807 12.901 150.807 16.1516V16.8401C150.807 16.9642 150.705 17.0545 150.592 17.0545H142.313C142.166 17.0545 142.065 17.19 142.098 17.3254C142.516 18.7024 143.657 19.436 145.08 19.436C146.187 19.436 147.012 19.1313 147.554 18.4992C147.599 18.4541 147.656 18.4202 147.712 18.4202H150.039C150.197 18.4202 150.31 18.5782 150.242 18.7249C149.373 20.5873 147.486 21.7836 145.08 21.7836C141.692 21.7836 139.309 19.4022 139.309 16.1516ZM147.769 15.0003C147.916 15.0003 148.028 14.8536 147.972 14.7182C147.498 13.4766 146.391 12.8559 145.08 12.8559C143.77 12.8559 142.663 13.4879 142.189 14.7182C142.132 14.8536 142.245 15.0003 142.392 15.0003H147.769Z" fill="#282828"/>
<path d="M37.359 5.33887H40.6797V12.7655L46.7565 5.33887H50.9358L43.7068 13.6684L51.1955 22.314H46.9034L40.6684 14.6842V22.314H37.3477V5.33887H37.359Z" fill="#282828"/>
</g>
<defs>
<clipPath id="clip0_975_162">
<rect width="150" height="30" fill="white" transform="translate(0.808594)"/>
</clipPath>
</defs>
</svg>
