<svg width="42" height="43" viewBox="0 0 42 43" fill="none" xmlns="http://www.w3.org/2000/svg">
<path d="M20.5592 42.193C13.8497 41.9596 8.24551 39.3619 4.08905 33.9796C0.913327 29.8419 -0.238652 25.0974 0.32177 19.9174C0.539712 17.9107 1.17797 16.0285 1.8318 14.1307C2.81253 11.3152 3.43523 8.4063 3.83997 5.45074C3.98008 4.37741 4.12018 3.31963 4.26029 2.24629C4.35369 1.59296 4.71174 1.1574 5.31886 0.924071C5.92599 0.690738 6.43971 0.89296 6.89116 1.2974C8.43232 2.69741 9.97348 4.09741 11.5146 5.49741C12.0906 6.0263 12.0906 6.04185 12.8067 5.69963C15.1885 4.59518 17.6948 4.01963 20.3257 3.97296C23.2679 3.92629 26.07 4.53296 28.732 5.80852C29.0434 5.94852 29.2302 5.93296 29.4948 5.69963C30.9426 4.34629 32.4215 3.00852 33.8848 1.67074C34.1962 1.39074 34.5231 1.09518 34.9123 0.924071C35.784 0.535182 36.7803 1.1574 36.9204 2.15296C37.1228 3.47518 37.294 4.81296 37.4809 6.13518C37.8856 8.91963 38.5394 11.6419 39.4268 14.3174C39.9249 15.7952 40.3764 17.2885 40.6877 18.813C41.3104 21.8463 41.0613 24.8485 40.1896 27.8196C38.7418 32.7196 35.7529 36.4063 31.4563 39.0819C28.7787 40.7463 25.8521 41.6952 22.7231 42.0063C22.0381 42.0685 21.3532 42.0996 20.6059 42.1619L20.5592 42.193ZM35.5194 32.1441C34.5698 31.7396 33.698 31.3663 32.8262 31.0085C32.0634 30.6819 31.721 30.013 32.0012 29.3285C32.2658 28.6596 32.9819 28.4107 33.7447 28.7219C34.3207 28.9552 34.8811 29.2041 35.4571 29.4374C35.893 29.6241 36.3289 29.7952 36.7492 29.9663C37.2162 29.2196 37.9946 26.9641 37.979 26.4819C37.3407 26.4819 36.7025 26.4819 36.0642 26.4819C35.0679 26.4819 34.0716 26.4819 33.0909 26.4819C32.4682 26.4819 32.0479 26.0619 31.97 25.5019C31.8455 24.6463 32.3592 24.0707 33.3088 24.0707C34.8188 24.0707 36.3444 24.0707 37.8545 24.0707C38.6173 24.0707 38.5394 24.2263 38.6017 23.3552C38.7729 20.8352 38.3215 18.4085 37.4653 16.0596C36.2977 12.8396 35.4727 9.54185 35.0212 6.15074C34.9434 5.51296 34.85 4.85963 34.7566 4.17518C34.6009 4.29963 34.4764 4.39296 34.3674 4.50185C33.698 5.10852 33.0286 5.73074 32.3592 6.33741C31.612 7.02185 30.8803 7.69074 30.1175 8.35963C29.526 8.87296 29.3547 8.87296 28.6542 8.51519C28.0471 8.20407 27.4244 7.89296 26.8017 7.58185C26.6772 7.51963 26.5526 7.48852 26.3814 7.4263C26.3814 8.34407 26.3814 9.18407 26.3814 10.0396C26.3814 10.833 25.8054 11.3774 25.0737 11.3307C24.3888 11.2841 23.9529 10.7396 23.9529 9.93074C23.9529 8.87296 23.9529 7.83074 23.9529 6.74185C21.7268 6.27518 19.5007 6.25963 17.2434 6.74185C17.2434 6.99074 17.2434 7.23963 17.2434 7.47296C17.2434 8.37519 17.259 9.26185 17.2434 10.1641C17.2278 10.8485 16.6985 11.3152 15.998 11.2996C15.3753 11.2996 14.8927 10.833 14.846 10.1796C14.8305 9.86852 14.846 9.55741 14.846 9.23074C14.846 8.65519 14.846 8.07963 14.846 7.4263C14.5814 7.53519 14.379 7.59741 14.1766 7.7063C13.6162 7.9863 13.0558 8.2663 12.4954 8.5463C11.9194 8.84185 11.7014 8.81074 11.2189 8.39074C9.95791 7.25519 8.69696 6.11963 7.43601 4.98407C7.14024 4.71963 6.84446 4.45518 6.50198 4.15963C6.42414 4.78185 6.34631 5.3263 6.28404 5.87074C5.91042 8.53074 5.3967 11.1596 4.5872 13.7263C4.10462 15.2507 3.5909 16.7752 3.13945 18.3307C2.64129 20.0885 2.57902 21.8774 2.67243 23.6974C2.688 23.993 2.79697 24.1019 3.09274 24.0707C3.41966 24.0396 3.74657 24.0707 4.07348 24.0707C5.42784 24.0707 6.78219 24.0396 8.13654 24.0707C9.07058 24.1019 9.55316 25.1285 9.05501 25.9063C8.79037 26.3263 8.38562 26.4819 7.90303 26.4819C6.50198 26.4819 5.11649 26.4819 3.71544 26.4819C3.5442 26.4819 3.37296 26.4819 3.06161 26.4819C3.52863 27.7107 3.94895 28.8463 4.38483 30.013C4.64947 29.9041 4.83628 29.8419 5.00752 29.7641C5.80145 29.4219 6.57981 29.0641 7.37374 28.753C7.66952 28.6441 8.04314 28.5819 8.35448 28.6285C8.85264 28.6907 9.21068 29.1263 9.25738 29.593C9.31965 30.1374 9.11728 30.6041 8.60356 30.853C8.08984 31.1174 7.54498 31.3196 7.00013 31.553C6.57981 31.7241 6.1595 31.9107 5.66135 32.113C9.39749 36.8263 14.0988 39.533 20.1233 39.7041C26.5371 39.8752 31.612 37.2308 35.5661 32.1285L35.5194 32.1441Z" fill="#282828"/>
<path d="M23.2849 29.8107C23.1448 29.8107 23.0202 29.8107 22.8801 29.7796C22.2263 29.6552 21.6659 29.3285 21.1522 28.7996L20.5606 28.1619L20.2493 28.5196C19.6421 29.2352 19.0039 29.6396 18.2567 29.7641C18.1166 29.7952 17.9764 29.7952 17.8519 29.7952C16.8712 29.7952 15.8749 29.1885 15.5013 28.3485C15.33 27.9596 15.3611 27.6174 15.5947 27.3063C15.7348 27.1196 15.9216 27.0263 16.1239 27.0263C16.3419 27.0263 16.5443 27.1663 16.6844 27.3996C17.0424 28.0219 17.4627 28.333 17.9453 28.333C18.3656 28.333 18.7704 28.0841 19.1596 27.5863C19.4553 27.213 19.5954 26.7307 19.72 26.3107L19.7667 26.1707C19.8757 25.7974 19.6421 25.4085 19.5799 25.2841C19.2063 24.7241 19.2997 24.0241 19.7823 23.5885C20.0002 23.4019 20.3115 23.293 20.6229 23.293C20.9342 23.293 21.2144 23.3863 21.4324 23.573C21.9305 23.993 22.0395 24.6774 21.6815 25.2063C21.3857 25.6419 21.4168 26.0619 21.4947 26.4196C21.6348 27.1352 22.0084 27.6952 22.5999 28.0685C22.8646 28.2396 23.1292 28.3174 23.3783 28.3174C23.6429 28.3174 24.1567 28.2085 24.4836 27.493C24.7015 27.0419 24.9817 27.0419 25.0751 27.0419C25.1063 27.0419 25.1374 27.0419 25.1685 27.0419C25.4332 27.073 25.7445 27.2441 25.7912 27.6174C25.8224 27.913 25.7601 28.2241 25.6667 28.4419C25.2931 29.2196 24.2812 29.7952 23.3005 29.7952L23.2849 29.8107Z" fill="#282828"/>
<path d="M13.0101 17.833C14.0687 17.833 14.9716 18.7352 14.9716 19.793C14.9716 20.8974 14.0687 21.8152 12.979 21.8152C11.9049 21.8152 11.002 20.913 11.002 19.8241C11.002 18.7041 11.8737 17.8174 12.9946 17.833H13.0101Z" fill="#282828"/>
<path d="M26.1464 19.8552C26.1464 18.7197 27.0338 17.833 28.1702 17.833C29.2287 17.833 30.1161 18.7352 30.1161 19.8241C30.1161 20.913 29.182 21.8308 28.0923 21.8308C27.0338 21.8308 26.1309 20.913 26.1309 19.8552H26.1464Z" fill="#282828"/>
</svg>
