<svg width="33" height="33" viewBox="0 0 33 33" fill="none" xmlns="http://www.w3.org/2000/svg">
<path d="M8.93684 21.1186C7.05019 22.242 2.10352 24.5358 5.11638 27.4062C6.58814 28.8083 8.22729 29.8111 10.2881 29.8111H22.0475C24.1084 29.8111 25.7476 28.8083 27.2193 27.4062C30.2321 24.5358 25.2855 22.242 23.3988 21.1186C18.9747 18.4842 13.361 18.4842 8.93684 21.1186Z" stroke="black" stroke-width="2.00031" stroke-linecap="round" stroke-linejoin="round"/>
<path d="M22.1698 9.1413C22.1698 12.4555 19.4831 15.1422 16.1689 15.1422C12.8547 15.1422 10.168 12.4555 10.168 9.1413C10.168 5.82708 12.8547 3.14038 16.1689 3.14038C19.4831 3.14038 22.1698 5.82708 22.1698 9.1413Z" stroke="black" stroke-width="2.00031"/>
</svg>
