<svg width="18" height="20" viewBox="0 0 18 20" fill="none" xmlns="http://www.w3.org/2000/svg">
<path fill-rule="evenodd" clip-rule="evenodd" d="M11.737 3.1929C12.4661 2.3479 12.9575 1.17099 12.823 0C11.7724 0.0400004 10.5013 0.671153 9.74797 1.51515C9.07147 2.26415 8.48093 3.46093 8.63969 4.60893C9.81168 4.69592 11.0079 4.03889 11.737 3.1929ZM14.3651 10.6251C14.3945 13.6521 17.1358 14.659 17.1662 14.672C17.1439 14.743 16.7283 16.1068 15.7222 17.5168C14.8515 18.7348 13.9485 19.9478 12.5257 19.9738C11.1283 19.9988 10.6783 19.1799 9.07956 19.1799C7.48186 19.1799 6.98232 19.9477 5.65966 19.9987C4.28645 20.0477 3.23985 18.681 2.36313 17.467C0.569254 14.984 -0.800928 10.4502 1.03947 7.39021C1.9536 5.87121 3.58669 4.90783 5.36035 4.88383C6.70828 4.85883 7.98139 5.75298 8.80553 5.75298C9.62966 5.75298 11.1768 4.67798 12.8028 4.83598C13.4834 4.86298 15.3945 5.0989 16.6211 6.81989C16.522 6.87889 14.3409 8.09512 14.3651 10.6251Z" fill="white"/>
</svg>
