<svg width="32" height="33" viewBox="0 0 32 33" fill="none" xmlns="http://www.w3.org/2000/svg">
<path d="M30.002 16.8501C30.002 24.5781 23.737 30.8501 16.002 30.8501C8.26695 30.8501 2.00195 24.5781 2.00195 16.8501C2.00195 9.1151 8.26695 2.8501 16.002 2.8501C23.737 2.8501 30.002 9.1151 30.002 16.8501Z" fill="#333333"/>
<path d="M22.5641 13.3075C22.4877 13.3521 20.669 14.2926 20.669 16.378C20.7547 18.7562 22.9641 19.5902 23.002 19.5902C22.9641 19.6348 22.6684 20.7264 21.7926 21.8706C21.0976 22.8563 20.3262 23.8501 19.1547 23.8501C18.0404 23.8501 17.6404 23.1932 16.3547 23.1932C14.974 23.1932 14.5833 23.8501 13.5262 23.8501C12.3547 23.8501 11.5261 22.8031 10.7932 21.8267C9.84105 20.5487 9.03173 18.5432 9.00316 16.6176C8.9839 15.5972 9.19384 14.5941 9.72676 13.7422C10.4789 12.5527 11.8218 11.7453 13.2883 11.7187C14.4119 11.6834 15.4119 12.4376 16.0976 12.4376C16.7547 12.4376 17.9833 11.7187 19.3734 11.7187C19.9734 11.7193 21.5734 11.8877 22.5641 13.3075ZM16.0026 11.515C15.8026 10.5831 16.3547 9.65128 16.869 9.05687C17.5262 8.33802 18.5641 7.8501 19.4591 7.8501C19.5162 8.78195 19.1541 9.69585 18.5069 10.3615C17.9262 11.0803 16.9262 11.6215 16.0026 11.515Z" fill="white"/>
</svg>
