<svg width="16" height="11" viewBox="0 0 16 11" fill="none" xmlns="http://www.w3.org/2000/svg">
<g id="Group 328">
<path id="Vector (Stroke)" fill-rule="evenodd" clip-rule="evenodd" d="M15.0378 4.41613C15.1696 4.63481 15.3203 4.94347 15.3203 5.28534C15.3203 5.62719 15.1696 5.93586 15.0378 6.15454C14.8936 6.39363 14.7018 6.63739 14.4948 6.87164C14.0793 7.34184 13.5396 7.84433 13.019 8.29634C12.4947 8.75155 11.9726 9.17039 11.5829 9.47452C11.3876 9.62689 11.2247 9.75117 11.1102 9.83767C11.0529 9.88093 11.0077 9.91477 10.9765 9.93799L10.9406 9.9647L10.931 9.97181L10.9276 9.97431C10.9275 9.97437 10.9272 9.97459 10.5073 9.40449L10.9276 9.97431C10.5969 10.2179 10.1309 10.1475 9.88733 9.81679C9.64376 9.48607 9.71441 9.0205 10.0451 8.77693L10.0473 8.77534L10.0552 8.76947L10.0877 8.74534C10.1164 8.7239 10.1591 8.69197 10.2137 8.65075C10.3229 8.56829 10.4795 8.4488 10.6677 8.3019C11.045 8.0075 11.5455 7.60583 12.0438 7.17318C12.5458 6.73731 13.0286 6.28456 13.3801 5.88676C13.5566 5.687 13.6844 5.51856 13.7639 5.38659C13.7909 5.34185 13.808 5.30841 13.8186 5.28533C13.808 5.26225 13.7909 5.22881 13.7639 5.18407C13.6844 5.0521 13.5566 4.88367 13.3801 4.68391C13.0287 4.28611 12.5458 3.83336 12.0438 3.3975C11.5455 2.96485 11.045 2.56319 10.6677 2.26879C10.4795 2.12189 10.3229 2.00241 10.2137 1.91994C10.1591 1.87872 10.1165 1.84679 10.0877 1.82536L10.0552 1.80123L10.0473 1.79536L10.0455 1.79402C10.0455 1.79401 10.0455 1.79404 10.0455 1.79402C9.7148 1.55044 9.64377 1.08462 9.88733 0.753907C10.1309 0.423179 10.5965 0.352525 10.9272 0.596098L10.4862 1.19494C10.9272 0.596098 10.9271 0.596038 10.9272 0.596098L10.931 0.598884L10.9406 0.605988L10.9765 0.632704C11.0077 0.655921 11.0529 0.689765 11.1102 0.733024C11.2247 0.819515 11.3876 0.943802 11.5829 1.09617C11.9726 1.4003 12.4947 1.81913 13.019 2.27434C13.5396 2.72634 14.0793 3.22883 14.4948 3.69902C14.7018 3.93327 14.8936 4.17703 15.0378 4.41613Z" fill="#FAF6F3"/>
<path id="Vector 184 (Stroke)" fill-rule="evenodd" clip-rule="evenodd" d="M0.964844 5.28473C0.964844 4.87399 1.29782 4.54102 1.70856 4.54102H14.1338C14.5445 4.54102 14.8775 4.87399 14.8775 5.28473C14.8775 5.69547 14.5445 6.02844 14.1338 6.02844H1.70856C1.29782 6.02844 0.964844 5.69547 0.964844 5.28473Z" fill="#FAF6F3"/>
</g>
</svg>
