<svg width="327" height="176" viewBox="0 0 327 176" fill="none" xmlns="http://www.w3.org/2000/svg">
<path d="M198.193 366.66C143.879 352.107 111.763 340.386 100.724 331.197C5.23013 265.106 14.462 200.245 58.6417 158.756C101.662 118.355 126.314 132.12 181.188 104.541C324.839 32.3451 332.226 64.2734 371.848 110.201C411.469 156.129 393.341 268.669 345.313 329.227C309.341 374.584 260.818 383.44 198.193 366.66Z" fill="#FFCE01"/>
<path d="M184.216 166.567C184.533 166.806 184.771 167.203 185.009 167.64C186.159 167.521 187.348 167.481 188.497 167.441C188.378 167.362 188.259 167.243 188.14 167.123C188.18 166.567 205.343 134.431 207.324 119.176C207.681 116.436 206.492 114.211 204.035 112.98C198.882 110.358 197.059 111.271 195.592 116.078C189.25 136.615 179.856 153.657 178.826 158.225C177.399 164.382 183.027 165.614 184.216 166.567Z" fill="#0061EF"/>
<path d="M251.836 62.4903C222.108 87.5562 229.837 75.4404 201.497 98.242C183.027 113.099 181.045 104.081 184.731 99.0365C187.228 95.6202 203.4 80.6045 216.638 72.5405C245.335 55.1016 242.561 49.4211 247.793 51.3676C254.174 53.7113 255.046 59.7891 251.836 62.4903Z" fill="#0061EF"/>
<path d="M193.214 58.6371L186.991 56.8495C184.058 49.7389 189.567 45.687 208.315 29.281C228.371 11.7229 228.57 11.0476 232.969 13.6297C246.247 21.3759 224.764 31.148 199.199 54.0688C197.376 55.6975 195.275 57.0481 193.214 58.6371Z" fill="#0061EF"/>
<path d="M288.658 73.8514L290.402 72.6199C292.819 78.4991 276.687 101.698 276.568 101.857C263.132 123.348 263.528 124.222 260.555 125.493C247.951 121.202 252.747 108.848 256.156 107.22C259.089 105.829 257.939 106.663 278.154 78.0224C284.02 69.6803 284.535 72.8583 288.658 73.8514Z" fill="#0061EF"/>
<path d="M223.536 151.393C207.048 143.21 227.54 114.608 234.635 95.6998C235.15 94.3095 236.26 92.4027 237.766 92.4821C257.981 93.1972 231.384 120.607 225.479 146.308C225.082 148.016 224.25 149.566 223.536 151.393Z" fill="#0061EF"/>
</svg>
