<?xml version="1.0" standalone="no"?>
<!DOCTYPE svg PUBLIC "-//W3C//DTD SVG 20010904//EN"
 "http://www.w3.org/TR/2001/REC-SVG-20010904/DTD/svg10.dtd">
<svg version="1.0" xmlns="http://www.w3.org/2000/svg"
 width="360.000000pt" height="360.000000pt" viewBox="0 0 360.000000 360.000000"
 preserveAspectRatio="xMidYMid meet">

<g transform="translate(0.000000,360.000000) scale(0.100000,-0.100000)"
fill="#000000" stroke="none">
<path d="M1705 3114 c-178 -24 -290 -56 -415 -119 -218 -110 -400 -290 -502
-496 l-43 -86 -121 -4 c-112 -4 -123 -6 -163 -32 -77 -51 -81 -68 -81 -402 0
-261 2 -294 19 -331 38 -84 99 -107 269 -102 159 4 148 -18 154 310 5 240 8
271 30 358 94 352 357 618 708 712 123 33 357 33 480 0 350 -94 613 -358 708
-712 24 -89 26 -111 26 -325 0 -205 -2 -239 -22 -318 -41 -162 -126 -322 -235
-443 -96 -106 -253 -208 -398 -259 l-76 -27 -54 54 c-63 63 -117 83 -203 76
-201 -17 -289 -266 -145 -410 124 -124 312 -90 393 71 15 28 33 51 40 51 8 0
53 13 100 29 171 58 327 161 458 299 126 135 216 289 260 449 l23 83 75 0
c120 1 176 29 211 105 17 36 19 70 19 330 0 334 -4 351 -81 402 -40 26 -51 28
-163 31 l-121 4 -24 54 c-40 91 -134 224 -217 308 -166 166 -364 273 -591 321
-74 15 -264 27 -318 19z"/>
<path d="M1626 2780 c-221 -47 -434 -203 -544 -400 -74 -131 -104 -253 -103
-419 0 -129 24 -233 80 -347 l40 -80 -15 -188 c-14 -172 -14 -190 1 -212 30
-47 49 -46 265 5 l201 49 57 -16 c91 -26 306 -22 406 6 233 67 414 215 521
427 70 138 88 228 83 399 -4 119 -9 153 -32 221 -139 409 -544 643 -960 555z
m-102 -714 c86 -36 89 -138 5 -182 -40 -20 -82 -10 -114 28 -45 53 -27 125 39
154 38 16 31 16 70 0z m620 0 c68 -28 87 -100 41 -154 -32 -38 -74 -48 -114
-28 -83 43 -81 145 3 182 38 16 31 16 70 0z m-273 -25 c40 -40 40 -89 0 -133
-24 -27 -36 -33 -71 -33 -35 0 -47 6 -71 33 -40 44 -40 93 0 133 23 23 38 29
71 29 33 0 48 -6 71 -29z"/>
</g>
</svg>
