<svg width="29" height="29" viewBox="0 0 29 29" fill="none" xmlns="http://www.w3.org/2000/svg">
<path d="M19.3254 5.81661L20.4802 4.66182C21.4369 3.70517 22.988 3.70517 23.9446 4.66182C24.9012 5.61849 24.9012 7.16952 23.9446 8.12619L22.7898 9.28097M19.3254 5.81661L11.5575 13.5845C10.9655 14.1765 10.5456 14.9182 10.3425 15.7304L9.49805 19.1084L12.876 18.2638C13.6882 18.0609 14.4299 17.6408 15.022 17.0488L22.7898 9.28097M19.3254 5.81661L22.7898 9.28097" stroke="#625042" stroke-width="1.7497" stroke-linejoin="round"/>
<path d="M22.3293 16.1918C22.3293 20.0265 22.3293 21.9439 21.2703 23.2344C21.0764 23.4706 20.8598 23.6872 20.6235 23.8811C19.333 24.9403 17.4156 24.9403 13.5808 24.9403H12.9977C8.59871 24.9403 6.39923 24.9403 5.03263 23.5736C3.66605 22.2071 3.66602 20.0075 3.66602 15.6086V15.0253C3.66602 11.1906 3.66602 9.27325 4.72509 7.98274C4.919 7.74648 5.13564 7.52984 5.3719 7.33593C6.66241 6.27686 8.57977 6.27686 12.4145 6.27686" stroke="#625042" stroke-width="1.7497" stroke-linecap="round" stroke-linejoin="round"/>
</svg>
