<svg width="32" height="33" viewBox="0 0 32 33" fill="none" xmlns="http://www.w3.org/2000/svg">
<path d="M30.0033 17.161C30.0033 16.0099 29.908 15.1699 29.7018 14.2988H16.2891V19.4943H24.162C24.0033 20.7855 23.1462 22.7299 21.2414 24.0365L21.2147 24.2105L25.4555 27.4301L25.7494 27.4588C28.4477 25.0166 30.0033 21.4232 30.0033 17.161" fill="#4285F4"/>
<path d="M16.2873 30.8501C20.1444 30.8501 23.3824 29.6056 25.7475 27.459L21.2396 24.0366C20.0333 24.8611 18.4142 25.4367 16.2873 25.4367C12.5095 25.4367 9.30323 22.9945 8.16027 19.6189L7.99274 19.6328L3.58306 22.9773L3.52539 23.1344C5.87456 27.7078 10.7 30.8501 16.2873 30.8501Z" fill="#34A853"/>
<path d="M8.16257 19.6191C7.86099 18.748 7.68645 17.8146 7.68645 16.8502C7.68645 15.8857 7.86099 14.9524 8.1467 14.0813L8.13871 13.8957L3.67376 10.4976L3.52768 10.5657C2.55947 12.4635 2.00391 14.5946 2.00391 16.8502C2.00391 19.1057 2.55947 21.2368 3.52768 23.1346L8.16257 19.6191" fill="#FBBC05"/>
<path d="M16.2874 8.26339C18.9699 8.26339 20.7793 9.39894 21.8111 10.3479L25.8429 6.4901C23.3668 4.23455 20.1444 2.8501 16.2874 2.8501C10.7 2.8501 5.87458 5.9923 3.52539 10.5656L8.14443 14.0812C9.30326 10.7056 12.5096 8.26339 16.2874 8.26339" fill="#EB4335"/>
</svg>
