<svg width="21" height="20" viewBox="0 0 21 20" fill="none" xmlns="http://www.w3.org/2000/svg">
<g id="Group 731">
<path id="Vector" d="M20.466 10.2273C20.466 9.54504 20.4102 8.86529 20.2935 8.19316H10.8633V12.0434H16.2632C16.04 13.2862 15.3197 14.3844 14.2671 15.0819V17.5828H17.4908C19.3779 15.8454 20.466 13.271 20.466 10.2273Z" fill="#4285F4"/>
<path id="Vector_2" d="M10.8628 20.0001C13.5615 20.0001 15.834 19.1149 17.4903 17.5854L14.2666 15.0846C13.3687 15.6933 12.2146 16.0408 10.8628 16.0408C8.25538 16.0408 6.04113 14.2831 5.24979 11.9141H1.92969V14.4911C3.62652 17.8695 7.08358 20.0001 10.8628 20.0001Z" fill="#34A853"/>
<path id="Vector_3" d="M5.25061 11.9141C4.83211 10.6738 4.83211 9.32699 5.25061 8.0867V5.50976H1.93051C0.510143 8.33527 0.510143 11.6655 1.93051 14.491L5.25061 11.9141Z" fill="#FBBC04"/>
<path id="Vector_4" d="M10.8628 3.95993C12.2882 3.93711 13.6654 4.47482 14.6977 5.45893L17.5537 2.60552C15.7427 0.906151 13.3459 -0.0272311 10.8628 0.000668956C7.08358 0.000668956 3.62652 2.13375 1.92969 5.50965L5.24979 8.0866C6.04113 5.71763 8.25538 3.95993 10.8628 3.95993Z" fill="#EA4335"/>
</g>
</svg>
