<svg width="115" height="26" viewBox="0 0 115 26" fill="none" xmlns="http://www.w3.org/2000/svg">
<path d="M14.9872 2.96705C14.5466 1.28533 15.6988 -0.0577846 17.3253 0.145376C18.2063 0.258243 19.0082 1.1386 19.0873 2.01897C19.2228 3.58781 17.9578 4.68262 16.3087 4.26501C15.6649 4.107 15.1453 3.5991 14.9872 2.95576V2.96705ZM15.4051 6.0596H18.579V19.2199H16.1957C15.7552 19.2199 15.4051 18.87 15.4051 18.4298V6.0596Z" fill="#282828"/>
<path d="M21.5059 14.1637V1.88376C21.5059 1.61288 21.7205 1.39844 21.9916 1.39844H24.1941C24.4652 1.39844 24.6798 1.61288 24.6798 1.88376V5.57451C24.6798 5.84539 24.8944 6.05984 25.1655 6.05984H30.9938C31.2649 6.05984 31.4795 6.27428 31.4795 6.54516V8.45261C31.4795 8.72349 31.2649 8.93794 30.9938 8.93794H25.1655C24.8944 8.93794 24.6798 9.15239 24.6798 9.42327V14.1637C24.6798 15.9244 25.5834 16.6129 26.8937 16.6129C28.2039 16.6129 29.1075 15.947 29.1075 14.1637V13.8138H32.2815V14.1637C32.2815 17.8093 30.0902 19.57 26.8937 19.57C23.6971 19.57 21.5059 17.8093 21.5059 14.1637Z" fill="#282828"/>
<path d="M34.168 14.1637V1.88376C34.168 1.61288 34.3826 1.39844 34.6537 1.39844H36.8562C37.1273 1.39844 37.3419 1.61288 37.3419 1.88376V5.57451C37.3419 5.84539 37.5565 6.05984 37.8276 6.05984H43.6559C43.927 6.05984 44.1416 6.27428 44.1416 6.54516V8.45261C44.1416 8.72349 43.927 8.93794 43.6559 8.93794H37.8276C37.5565 8.93794 37.3419 9.15239 37.3419 9.42327V14.1524C37.3419 15.9131 38.2455 16.6016 39.5558 16.6016C40.866 16.6016 41.7696 15.9357 41.7696 14.1524V13.8025H44.9436V14.1524C44.9436 17.798 42.7523 19.5587 39.5558 19.5587C36.3592 19.5587 34.168 17.798 34.168 14.1524V14.1637Z" fill="#282828"/>
<path d="M59.841 18.7689C59.841 20.5974 59.3327 22.4822 57.9095 23.7125C56.7122 24.7509 55.1083 25.1346 53.5609 25.191C50.9968 25.27 48.3425 24.8524 45.8801 24.164C44.841 23.8705 43.8018 23.5206 42.8869 22.9337C41.972 22.3468 41.1813 21.5229 40.8086 20.5071C41.283 20.9924 42.0849 21.0375 42.7288 20.8005C43.3726 20.5635 43.9035 20.112 44.4456 19.7057C44.9878 19.2994 45.5977 18.9044 46.2755 18.8366C47.1565 18.7463 48.0036 19.2204 48.67 19.796C49.3365 20.3716 49.9238 21.0601 50.6467 21.5567C51.8553 22.3807 53.8093 22.7757 55.1422 22.0533C56.3959 21.3761 56.7348 19.8524 56.667 18.5545C56.6444 18.1482 56.1587 17.9676 55.8651 18.2497C55.0631 19.0059 54.0014 19.401 52.7589 19.401C49.7205 19.401 46.8402 17.4258 46.8402 12.7418V6.52287C46.8402 6.26328 47.0548 6.04883 47.3146 6.04883H49.5511C49.8109 6.04883 50.0255 6.26328 50.0255 6.52287V12.7418C50.0255 15.2475 51.3583 16.4439 53.3575 16.4439C55.3568 16.4439 56.6896 15.191 56.6896 12.7418V6.52287C56.6896 6.26328 56.9042 6.04883 57.164 6.04883H59.4005C59.6602 6.04883 59.8749 6.26328 59.8749 6.52287V18.7576L59.841 18.7689Z" fill="#282828"/>
<path d="M62.7441 11.3194C62.7441 7.07563 65.8729 3.94922 70.2893 3.94922C73.7908 3.94922 76.4904 5.90182 77.4505 8.84764C77.5295 9.10723 77.3488 9.36683 77.0777 9.36683H74.9203C74.7622 9.36683 74.6267 9.27653 74.5702 9.12981C73.8473 7.54967 72.2999 6.52258 70.2893 6.52258C67.4655 6.52258 65.5566 8.5429 65.5566 11.3081C65.5566 14.0734 67.4655 16.1163 70.2893 16.1163C72.2999 16.1163 73.8473 15.0666 74.5702 13.4865C74.638 13.351 74.7735 13.2494 74.9203 13.2494H77.0777C77.3488 13.2494 77.5295 13.509 77.4505 13.7686C76.4904 16.7145 73.8021 18.6671 70.2893 18.6671C65.8616 18.6671 62.7441 15.5406 62.7441 11.2968V11.3194Z" fill="#282828"/>
<path d="M78.8511 12.4933C79.0657 10.0102 81.3021 7.73029 83.7871 7.45941C87.5823 7.05309 90.327 9.41201 90.327 13.1366V18.1366C90.327 18.2833 90.2027 18.4075 90.0559 18.4075H88.2261C88.0792 18.4075 87.955 18.2833 87.955 18.1366V16.5791C87.955 16.5113 87.8646 16.5 87.842 16.5565C87.1417 17.9673 85.7637 18.6897 84.1598 18.6897C81.4038 18.6897 78.5009 16.6016 78.8511 12.4933ZM87.7291 13.2608C87.8195 11.263 86.5318 9.81833 84.5664 9.82961C82.8948 9.82961 81.5055 11.2066 81.4264 12.8657C81.336 14.8635 82.6576 16.2969 84.6116 16.2856C86.272 16.2743 87.65 14.9199 87.7291 13.2608Z" fill="#282828"/>
<path d="M92.3379 12.1888C92.3379 8.96077 94.2468 7.42578 97.048 7.42578C99.8492 7.42578 101.735 8.96077 101.735 12.2339V12.3016H99.1715V12.1888C99.1715 10.4506 98.3018 9.82984 97.048 9.82984C95.7942 9.82984 94.9245 10.4619 94.9245 12.1888V17.9901C94.9245 18.2158 94.7438 18.4077 94.5066 18.4077H92.7558C92.5299 18.4077 92.3379 18.2271 92.3379 17.9901V12.1888Z" fill="#282828"/>
<path d="M102.57 13.0578C102.57 9.80727 104.954 7.42578 108.342 7.42578C111.731 7.42578 114.069 9.80727 114.069 13.0578V13.7463C114.069 13.8705 113.967 13.9608 113.854 13.9608H105.575C105.428 13.9608 105.326 14.0962 105.36 14.2317C105.778 15.6086 106.919 16.3423 108.342 16.3423C109.449 16.3423 110.274 16.0375 110.816 15.4055C110.861 15.3603 110.917 15.3265 110.974 15.3265H113.301C113.459 15.3265 113.572 15.4845 113.504 15.6312C112.634 17.4935 110.748 18.6899 108.342 18.6899C104.954 18.6899 102.57 16.3084 102.57 13.0578ZM111.03 11.9066C111.177 11.9066 111.29 11.7599 111.234 11.6244C110.759 10.3829 109.652 9.76213 108.342 9.76213C107.032 9.76213 105.925 10.3942 105.451 11.6244C105.394 11.7599 105.507 11.9066 105.654 11.9066H111.03Z" fill="#282828"/>
<path d="M0.620673 2.24512H3.94145V9.67175L10.0183 2.24512H14.1975L6.96856 10.5747L14.4573 19.2203H10.1651L3.93016 11.5905V19.2203H0.609375V2.24512H0.620673Z" fill="#282828"/>
</svg>
