<svg width="77" height="19" viewBox="0 0 77 19" fill="none" xmlns="http://www.w3.org/2000/svg">
<path d="M11.2378 12.2437C11.5692 12.5751 11.727 12.9064 11.727 13.2378C11.727 13.6007 11.6165 13.8847 11.3798 14.1213C11.1432 14.358 10.8434 14.4685 10.4962 14.4685C10.1333 14.4685 9.80196 14.3107 9.48639 13.9793L3.12751 7.52595H3.0644V13.1273C3.0644 13.6322 2.93817 13.9951 2.68571 14.1845C2.43325 14.3738 2.16501 14.4843 1.86521 14.4843C1.56541 14.4843 1.29717 14.3896 1.04471 14.1845C0.79225 13.9951 0.666016 13.6322 0.666016 13.1273V1.97194C0.666016 1.46703 0.79225 1.10412 1.04471 0.914781C1.29717 0.72544 1.56541 0.61499 1.86521 0.61499C2.16501 0.61499 2.43325 0.709661 2.68571 0.914781C2.93817 1.1199 3.0644 1.46703 3.0644 1.97194V6.62658H3.12751L9.15503 1.07257C9.47061 0.772775 9.80196 0.61499 10.1333 0.61499C10.4489 0.61499 10.7171 0.725439 10.938 0.930559C11.1589 1.13568 11.2694 1.40391 11.2694 1.7037C11.2694 2.08239 11.0958 2.41373 10.7802 2.69775L5.77836 7.03682L11.2378 12.2437Z" fill="black"/>
<path d="M15.4991 1.02508C15.7831 1.29331 15.9251 1.60888 15.9251 2.00334C15.9251 2.3978 15.7831 2.72915 15.4991 2.98161C15.215 3.24984 14.8521 3.37607 14.4419 3.37607C14.0316 3.37607 13.6845 3.23406 13.4163 2.96583C13.1322 2.69759 12.9902 2.36625 12.9902 2.00334C12.9902 1.64044 13.1322 1.30909 13.4163 1.04086C13.7003 0.772622 14.0474 0.630615 14.4419 0.630615C14.8679 0.646394 15.215 0.772621 15.4991 1.02508ZM15.6095 13.1903C15.6095 13.6794 15.4833 14.0107 15.2466 14.2001C15.0099 14.3894 14.7417 14.4841 14.4577 14.4841C14.1736 14.4841 13.9212 14.3894 13.6687 14.2001C13.432 14.0107 13.3058 13.6794 13.3058 13.1903V6.24775C13.3058 5.75861 13.432 5.42727 13.6687 5.23792C13.9054 5.04858 14.1736 4.95391 14.4577 4.95391C14.7417 4.95391 14.9941 5.04858 15.2466 5.23792C15.4833 5.42727 15.6095 5.75861 15.6095 6.24775V13.1903Z" fill="black"/>
<path d="M22.3443 14.2312C22.013 14.389 21.6343 14.4837 21.224 14.4837C20.1037 14.4837 19.3306 14.1997 18.9045 13.6159C18.4785 13.0321 18.2576 12.2432 18.2576 11.2333V6.95738H17.516C17.1373 6.95738 16.8691 6.86271 16.7113 6.65759C16.5535 6.45247 16.4746 6.24735 16.4746 6.04223C16.4746 5.916 16.4904 5.78977 16.5377 5.66355C16.5851 5.53732 16.6797 5.41109 16.8533 5.30064C17.0111 5.19019 17.232 5.12708 17.5002 5.12708H18.2418V3.54923C18.2418 3.09166 18.3681 2.77609 18.6048 2.58675C18.8414 2.3974 19.0939 2.30273 19.3621 2.30273C19.6304 2.30273 19.8828 2.3974 20.1195 2.58675C20.3562 2.77609 20.4824 3.09166 20.4824 3.54923V5.12708H21.9183C22.297 5.12708 22.5652 5.22175 22.723 5.42687C22.8808 5.63199 22.9597 5.83711 22.9597 6.04223C22.9597 6.16846 22.9439 6.29468 22.8966 6.42091C22.8493 6.54714 22.7546 6.67337 22.581 6.78381C22.4232 6.89426 22.2023 6.95738 21.9341 6.95738H20.4982V11.2176C20.4982 12.1327 20.798 12.5903 21.3818 12.5903C21.4449 12.5903 21.5712 12.5745 21.7447 12.5587C21.8394 12.543 21.9341 12.543 22.013 12.543C22.2812 12.543 22.4863 12.6218 22.6599 12.7954C22.8177 12.969 22.8966 13.1741 22.8966 13.395C22.8966 13.7579 22.7073 14.0419 22.3443 14.2312Z" fill="black"/>
<path d="M28.0748 14.2312C27.7435 14.389 27.3648 14.4837 26.9545 14.4837C25.8342 14.4837 25.0611 14.1997 24.635 13.6159C24.209 13.0321 23.9881 12.2432 23.9881 11.2333V6.95738H23.2465C22.8678 6.95738 22.5995 6.86271 22.4418 6.65759C22.284 6.45247 22.2051 6.24735 22.2051 6.04223C22.2051 5.916 22.2209 5.78977 22.2682 5.66355C22.3155 5.53732 22.4102 5.41109 22.5838 5.30064C22.7416 5.19019 22.9625 5.12708 23.2307 5.12708H23.9723V3.54923C23.9723 3.09166 24.0985 2.77609 24.3352 2.58675C24.5719 2.3974 24.8244 2.30273 25.0926 2.30273C25.3608 2.30273 25.6133 2.3974 25.85 2.58675C26.0867 2.77609 26.2129 3.09166 26.2129 3.54923V5.12708H27.6488C28.0275 5.12708 28.2957 5.22175 28.4535 5.42687C28.6113 5.63199 28.6902 5.83711 28.6902 6.04223C28.6902 6.16846 28.6744 6.29468 28.6271 6.42091C28.5797 6.54714 28.4851 6.67337 28.3115 6.78381C28.1537 6.89426 27.9328 6.95738 27.6646 6.95738H26.2287V11.2176C26.2287 12.1327 26.5285 12.5903 27.1123 12.5903C27.1754 12.5903 27.3016 12.5745 27.4752 12.5587C27.5699 12.543 27.6646 12.543 27.7435 12.543C28.0117 12.543 28.2168 12.6218 28.3904 12.7954C28.5482 12.969 28.6271 13.1741 28.6271 13.395C28.6271 13.7579 28.4377 14.0419 28.0748 14.2312Z" fill="black"/>
<path d="M37.7935 6.61099L33.8646 16.2516C33.5017 17.151 33.0599 17.8137 32.555 18.2397C32.05 18.6657 31.3242 18.8709 30.3933 18.8709C29.9515 18.8709 29.6201 18.7762 29.4308 18.5711C29.2256 18.3659 29.131 18.1293 29.131 17.8453C29.131 17.6086 29.1941 17.4192 29.3361 17.2299C29.4781 17.0563 29.6674 16.9459 29.8883 16.8985C29.9672 16.8828 30.0935 16.8828 30.2513 16.8828C30.9455 16.8828 31.4978 16.4094 31.8765 15.4469L32.3341 14.2793L28.8785 6.67411C28.7838 6.43743 28.7207 6.21653 28.7207 6.01141C28.7207 5.71162 28.8312 5.45917 29.0521 5.25405C29.273 5.04893 29.5412 4.95426 29.8726 4.95426C30.3775 4.95426 30.7562 5.25405 31.0244 5.85363L33.5017 11.7863H33.5332L35.6792 5.90096C35.9159 5.26983 36.2788 4.93848 36.7995 4.93848C37.1308 4.93848 37.3991 5.03315 37.6042 5.22249C37.8093 5.41183 37.9198 5.66429 37.9198 5.96408C37.9198 6.1692 37.8882 6.37432 37.7935 6.61099Z" fill="black"/>
<path d="M45.8262 14.6415C43.7118 14.6415 41.9761 13.9788 40.6349 12.6534C39.2779 11.328 38.6152 9.6082 38.6152 7.50967C38.6152 5.37957 39.3095 3.6755 40.6823 2.38167C42.0708 1.08784 43.8223 0.440918 45.9366 0.440918C46.7098 0.440918 47.4514 0.551367 48.1614 0.772265C48.8715 0.993164 49.4395 1.29295 49.8971 1.67164C50.26 1.98721 50.4336 2.31855 50.4336 2.66568C50.4336 2.96547 50.3231 3.2337 50.1022 3.4546C49.8813 3.6755 49.6131 3.78595 49.2975 3.78595C49.045 3.78595 48.7295 3.65972 48.3823 3.40727C47.7354 2.85502 46.9149 2.57101 45.9366 2.57101C44.5639 2.57101 43.4436 3.04436 42.5599 3.99107C41.6921 4.93778 41.2503 6.10538 41.2503 7.52544C41.2503 9.00862 41.6606 10.2078 42.4968 11.1229C43.3331 12.0381 44.4376 12.5114 45.8262 12.5114C46.9149 12.5114 47.8616 12.1643 48.6506 11.4543C48.9662 11.186 49.2659 11.0598 49.55 11.0598C49.8498 11.0598 50.1022 11.1545 50.3074 11.3438C50.5125 11.5332 50.6071 11.7856 50.6071 12.1012C50.6071 12.4641 50.4494 12.7954 50.118 13.1268C49.1082 14.1208 47.6565 14.6415 45.8262 14.6415Z" fill="black"/>
<path d="M59.5048 13.2536C59.5048 13.6954 59.3943 14.011 59.1577 14.1845C58.921 14.3581 58.6843 14.4528 58.4318 14.4528C58.274 14.4528 58.132 14.4212 57.99 14.3739C57.848 14.3265 57.706 14.2003 57.564 14.011C57.422 13.8216 57.3589 13.5692 57.3589 13.2536V13.1274H57.2958C57.0591 13.5376 56.6962 13.869 56.1755 14.1372C55.6548 14.4054 55.0867 14.5317 54.4398 14.5317C53.5562 14.5317 52.7672 14.295 52.0572 13.8374C51.3471 13.3798 51 12.654 51 11.6915C51 11.1708 51.1262 10.7133 51.3945 10.3188C51.6627 9.92435 51.9783 9.62456 52.3728 9.41944C52.7672 9.19854 53.2564 9.02498 53.856 8.89875C54.4556 8.77252 55.0078 8.67785 55.5285 8.64629C56.0492 8.61474 56.6488 8.58318 57.2958 8.58318V8.3465C57.2958 7.81004 57.0906 7.39979 56.6962 7.1C56.3017 6.80021 55.7968 6.65821 55.1814 6.65821C54.5976 6.65821 53.9349 6.89489 53.1933 7.35246C52.9724 7.47869 52.7672 7.5418 52.5779 7.5418C52.3412 7.5418 52.1361 7.46291 51.9625 7.28935C51.8047 7.11578 51.71 6.91066 51.71 6.67399C51.71 6.32686 51.8836 6.04285 52.2465 5.79039C53.1301 5.17503 54.1716 4.87524 55.355 4.87524C56.1439 4.87524 56.8224 4.98569 57.3747 5.20659C57.9269 5.42749 58.3529 5.72728 58.637 6.12174C58.9368 6.5162 59.1419 6.91066 59.2523 7.33668C59.3786 7.7627 59.4417 8.22027 59.4417 8.72519V13.2536H59.5048ZM57.3273 10.1137H56.8066C54.4713 10.1137 53.3195 10.6186 53.3195 11.6442C53.3195 12.0544 53.4773 12.3385 53.7929 12.5278C54.1084 12.7014 54.4871 12.796 54.9289 12.796C55.7021 12.796 56.3017 12.5909 56.7119 12.1807C57.1222 11.7704 57.3273 11.1866 57.3273 10.445V10.1137Z" fill="black"/>
<path d="M64.0498 13.1906C64.0498 13.6798 63.9236 14.0111 63.6869 14.2005C63.4502 14.3898 63.182 14.4845 62.8979 14.4845C62.6139 14.4845 62.3615 14.3898 62.109 14.2005C61.8723 14.0111 61.7461 13.6798 61.7461 13.1906V6.18501C61.7461 5.74321 61.8565 5.42764 62.0932 5.2383C62.3299 5.04896 62.5666 4.95429 62.8348 4.95429C63.1031 4.95429 63.3555 5.04896 63.5922 5.22252C63.8289 5.39609 63.9393 5.71165 63.9393 6.18501V6.65836H63.9709C64.1603 6.15345 64.4758 5.72743 64.9019 5.38031C65.3279 5.03318 65.817 4.85962 66.3535 4.85962C66.7164 4.85962 67.0004 4.93851 67.2056 5.11208C67.4265 5.28564 67.5369 5.53809 67.5369 5.86944C67.5369 6.18501 67.4423 6.45324 67.2371 6.65836C67.032 6.86348 66.7164 6.97393 66.3062 6.97393C65.5961 6.97393 65.0439 7.21061 64.6336 7.69974C64.2391 8.18887 64.034 8.82001 64.034 9.59315V13.1906H64.0498Z" fill="black"/>
<path d="M75.5822 10.4294H69.8229C69.8703 11.0606 70.1543 11.597 70.6592 12.0388C71.1641 12.4648 71.7637 12.6857 72.4422 12.6857C73.2154 12.6857 73.9254 12.4175 74.5408 11.8968C74.809 11.6759 75.0615 11.5655 75.3297 11.5655C75.598 11.5655 75.8189 11.6444 75.9925 11.8179C76.166 11.9915 76.2449 12.2124 76.2449 12.4806C76.2449 12.7804 76.1187 13.0644 75.8662 13.3011C74.9984 14.1216 73.8623 14.5476 72.4738 14.5476C71.0379 14.5476 69.8545 14.1216 68.9393 13.2538C68.0084 12.3859 67.5508 11.2183 67.5508 9.76672C67.5508 8.29932 68.0084 7.11594 68.9235 6.21657C69.8387 5.3172 70.9906 4.85962 72.3949 4.85962C73.5467 4.85962 74.525 5.19097 75.314 5.86944C76.1029 6.53213 76.592 7.52618 76.7656 8.82001C76.7972 9.07247 76.7972 9.23025 76.7972 9.29337C76.7814 10.0507 76.3711 10.4294 75.5822 10.4294ZM69.8072 8.78845H74.5092C74.5092 8.15732 74.3199 7.62085 73.957 7.21061C73.5941 6.78459 73.0576 6.57947 72.3475 6.57947C71.6691 6.57947 71.101 6.78459 70.6119 7.21061C70.1227 7.63663 69.8545 8.15732 69.8072 8.78845Z" fill="black"/>
</svg>
