<svg width="376" height="812" viewBox="0 0 376 812" fill="none" xmlns="http://www.w3.org/2000/svg">
<path d="M420.934 717.637C464.338 717.636 490.625 719.96 500.691 724.605C585.095 754.804 591.17 805.009 566.518 844.77C542.514 883.487 521.384 878.149 485.979 909.674C393.297 992.202 381.411 969.872 342.694 943.544C303.977 917.217 295.01 829.686 318.721 774.938C336.479 733.934 370.888 717.637 420.934 717.637Z" fill="#FFA500"/>
<path d="M-41.7769 -88.3691C1.6268 -88.3694 27.914 -86.0462 37.9805 -81.4004C122.384 -51.2015 128.459 -0.996671 103.807 38.7636C79.8027 77.4809 58.6726 72.1428 23.2681 103.668C-69.4135 186.196 -81.2998 163.866 -120.017 137.538C-158.734 111.211 -167.701 23.6798 -143.99 -31.0676C-126.232 -72.0715 -91.8225 -88.3688 -41.7769 -88.3691Z" fill="#FFA500"/>
<path d="M61.212 45.5391C68.2749 19.0113 21.0434 27.8409 33.8985 48.0565C41.853 60.5679 58.0051 57.5075 61.212 45.5391ZM56.2445 42.3043L56.0851 41.7177L56.5719 41.7575L56.2445 42.3043Z" fill="#0061EF"/>
<path d="M63.6673 95.5279C63.7345 94.0954 64.1272 91.617 63.819 89.2227C62.8799 82.2626 56.1103 77.8197 48.3032 82.4816C41.9949 86.2759 40.7975 96.6523 45.781 102.022C50.9107 107.521 59.768 105.86 62.5497 98.8546C62.8916 98.085 63.0956 97.3238 63.6673 95.5279ZM56.3104 93.7832C54.8229 94.6085 53.8222 95.4735 52.6849 95.6674C50.303 96.117 51.1846 89.2822 54.2588 90.4685C55.1109 90.8328 55.477 92.3361 56.3104 93.7832Z" fill="#0061EF"/>
<path d="M9.11105 37.8476C0.536699 35.4141 -8.77249 46.0193 -2.74187 54.5703C10.0551 72.64 24.8672 42.3414 9.11105 37.8476ZM9.23971 51.2083C8.39381 50.4831 7.54165 50.1187 7.22479 49.4446C5.64555 46.3924 10.301 46.2347 10.4361 49.4438C10.4803 49.9543 9.73907 50.5262 9.23971 51.2083Z" fill="#0061EF"/>
<path d="M36.1956 128.009C37.6027 123.264 34.4739 117.893 29.5367 116.57C25.5279 115.496 19.1825 119.598 18.3107 124.033C17.4534 128.245 20.642 133.224 25.3259 134.479C29.5035 135.599 34.8905 132.374 36.1956 128.009Z" fill="#0061EF"/>
<path d="M38.3083 75.7411C39.4137 71.2779 35.6778 65.4722 30.9989 64.5358C27.0909 63.7606 21.534 67.6202 20.4316 71.9029C19.3551 75.9206 22.9059 81.4047 27.4664 82.4454C31.2251 83.2713 37.1122 80.5426 38.3083 75.7411Z" fill="#0061EF"/>
<path d="M5.99059 86.9632C1.92827 85.92 -3.51534 89.3567 -4.84311 93.8057C-6.09156 97.9586 -2.56032 103.347 2.0537 104.357C6.28794 105.264 11.9879 101.715 12.9718 97.5366C14.001 93.189 10.6859 88.1759 5.99059 86.9632Z" fill="#0061EF"/>
<path d="M353.421 781.17C353.558 781.353 353.787 781.491 354.04 781.628C353.971 782.291 353.948 782.977 353.925 783.641C353.879 783.572 353.81 783.504 353.742 783.435C353.421 783.458 334.875 793.362 326.072 794.506C324.49 794.712 323.206 794.026 322.495 792.607C320.982 789.634 321.51 788.582 324.283 787.735C336.135 784.075 345.97 778.654 348.606 778.06C352.16 777.236 352.87 780.484 353.421 781.17Z" fill="#0061EF"/>
<path d="M293.358 820.194C307.823 803.038 300.831 807.499 313.99 791.144C322.564 780.485 317.36 779.341 314.448 781.468C312.477 782.909 303.811 792.242 299.158 799.882C289.094 816.443 285.816 814.841 286.939 817.861C288.291 821.544 291.799 822.047 293.358 820.194Z" fill="#0061EF"/>
<path d="M291.134 786.363L290.102 782.772C285.999 781.08 283.661 784.259 274.193 795.078C264.06 806.653 263.67 806.767 265.16 809.306C269.631 816.969 275.27 804.571 288.498 789.817C289.438 788.765 290.217 787.553 291.134 786.363Z" fill="#0061EF"/>
<path d="M344.663 803.861C339.94 794.346 323.434 806.172 312.522 810.266C311.72 810.563 310.62 811.204 310.665 812.073C311.078 823.739 326.896 808.39 341.728 804.982C342.714 804.753 343.608 804.273 344.663 803.861Z" fill="#0061EF"/>
<path d="M-5.6052 760.459C4.72396 763.093 -4.02171 774.15 14.24 779.302C19.7875 780.864 19.441 785.23 20.3228 788.393C21.381 792.183 26.6375 791.574 25.6914 786.943C24.5686 781.459 23.7235 777.38 17.9617 774.952C12.9531 772.851 8.4491 773.235 6.20824 766.457C4.55907 761.474 2.87378 757.859 -2.3982 755.871C-11.0342 752.599 -12.4502 754.241 -14.5675 745.757C-15.0716 743.724 -15.3495 742.092 -17.6585 741.789C-19.3902 741.561 -20.8945 742.764 -20.5915 744.47C-19.2026 752.402 -17.8546 757.334 -5.6052 760.459Z" fill="#FFCE01"/>
<path d="M309.917 53.9328C312.448 64.7164 313.837 65.5659 309.054 66.3473C307.599 66.5756 306.966 65.7204 306.352 64.915C305.423 63.7156 305.502 62.5198 301.616 64.5352C299.384 65.6944 302.911 72.9519 309.188 72.1091C321.457 70.4488 317.801 62.8422 315.619 54.5696C314.967 52.034 316.752 50.5519 317.887 51.3586C321.688 54.0524 326.286 61.6645 331.599 58.514C341.694 52.4975 330.034 42.7427 334.074 39.2434C337.706 36.1094 340.338 44.2844 343.786 45.8962C345.151 46.5279 346.074 44.9202 345.867 44.2372C343.972 38.0573 339.416 31.234 333.423 33.6148C323.031 37.7237 329.897 46.3272 330.521 51.6373C330.661 52.877 329.24 54.1466 327.894 53.0772C322.873 49.0414 318.648 42.5948 313.68 46.4916C310.709 48.7486 309.924 51.0077 309.917 53.9328Z" fill="#FFCE01"/>
</svg>
