<svg width="1921" height="1080" viewBox="0 0 1921 1080" fill="none" xmlns="http://www.w3.org/2000/svg">
<path d="M1697.38 1113.9C1697.38 1216.53 1702.87 1278.69 1713.85 1302.49C1785.26 1502.07 1903.97 1516.43 1997.99 1458.14C2089.53 1401.38 2076.91 1351.42 2151.46 1267.7C2346.59 1048.56 2293.8 1020.45 2231.54 928.901C2169.29 837.353 1962.32 816.15 1832.87 872.216C1735.91 914.207 1697.38 995.568 1697.38 1113.9Z" fill="#FFA500"/>
<path d="M-208.451 19.8094C-208.452 122.439 -202.959 184.596 -191.973 208.398C-120.567 407.973 -1.85617 422.337 92.1584 364.048C183.706 307.288 171.084 257.325 245.628 173.61C440.767 -45.5382 387.967 -73.6439 325.715 -165.192C263.462 -256.74 56.4922 -277.943 -72.9598 -221.878C-169.915 -179.886 -208.45 -98.525 -208.451 19.8094Z" fill="#FFA500"/>
<path d="M108.181 263.329C45.455 280.029 66.3327 168.349 114.133 198.745C143.717 217.554 136.48 255.746 108.181 263.329ZM100.532 251.583L99.1449 251.206L99.239 252.357L100.532 251.583Z" fill="#0061EF"/>
<path d="M226.379 269.139C222.992 269.298 217.132 270.226 211.471 269.497C195.013 267.277 184.508 251.27 195.531 232.81C204.503 217.894 229.038 215.062 241.734 226.846C254.738 238.975 250.811 259.919 234.246 266.496C232.426 267.305 230.626 267.787 226.379 269.139ZM222.254 251.743C224.206 248.226 226.251 245.86 226.709 243.17C227.772 237.538 211.611 239.623 214.416 246.892C215.278 248.907 218.832 249.773 222.254 251.743Z" fill="#0061EF"/>
<path d="M89.9934 140.138C84.2393 119.863 109.316 97.8514 129.535 112.111C172.261 142.37 100.619 177.394 89.9934 140.138ZM121.585 140.442C119.87 138.442 119.009 136.427 117.415 135.677C110.198 131.943 109.825 142.951 117.413 143.271C118.62 143.375 119.972 141.623 121.585 140.442Z" fill="#0061EF"/>
<path d="M303.182 204.179C291.963 207.506 279.263 200.108 276.135 188.434C273.595 178.955 283.293 163.951 293.78 161.889C303.741 159.862 315.514 167.402 318.482 178.477C321.128 188.355 313.502 201.093 303.182 204.179Z" fill="#0061EF"/>
<path d="M179.593 209.176C169.04 211.79 155.312 202.956 153.098 191.893C151.265 182.653 160.391 169.513 170.518 166.907C180.018 164.361 192.985 172.757 195.446 183.54C197.399 192.428 190.947 206.348 179.593 209.176Z" fill="#0061EF"/>
<path d="M206.128 132.76C203.661 123.155 211.787 110.283 222.307 107.144C232.127 104.192 244.867 112.541 247.255 123.451C249.402 133.463 241.009 146.941 231.129 149.268C220.849 151.701 208.995 143.863 206.128 132.76Z" fill="#0061EF"/>
<path d="M1847.6 954.269C1848.04 954.594 1848.36 955.136 1848.69 955.732C1850.25 955.57 1851.88 955.516 1853.44 955.461C1853.28 955.353 1853.12 955.19 1852.96 955.028C1853.01 954.269 1876.43 910.416 1879.14 889.601C1879.62 885.861 1878 882.825 1874.65 881.145C1867.62 877.567 1865.13 878.814 1863.13 885.373C1854.47 913.398 1841.65 936.652 1840.25 942.886C1838.3 951.288 1845.98 952.968 1847.6 954.269Z" fill="#0061EF"/>
<path d="M1939.87 812.249C1899.31 846.453 1909.86 829.921 1871.18 861.035C1845.98 881.308 1843.28 869.003 1848.31 862.119C1851.71 857.457 1873.78 836.967 1891.85 825.963C1931 802.167 1927.22 794.416 1934.36 797.072C1943.07 800.27 1944.26 808.563 1939.87 812.249Z" fill="#0061EF"/>
<path d="M1859.88 806.991L1851.39 804.552C1847.39 794.849 1854.91 789.32 1880.49 766.933C1907.86 742.974 1908.13 742.053 1914.13 745.576C1932.25 756.146 1902.93 769.481 1868.05 800.758C1865.56 802.98 1862.69 804.823 1859.88 806.991Z" fill="#0061EF"/>
<path d="M1901.26 933.562C1878.76 922.396 1906.72 883.368 1916.4 857.566C1917.1 855.668 1918.62 853.066 1920.67 853.175C1948.26 854.151 1911.97 891.553 1903.91 926.624C1903.37 928.955 1902.23 931.069 1901.26 933.562Z" fill="#0061EF"/>
<path d="M1538.53 247.21C1544.76 271.634 1570.91 250.955 1583.09 294.135C1586.78 307.252 1597.1 306.433 1604.58 308.518C1613.55 311.02 1612.11 323.449 1601.16 321.212C1588.19 318.558 1578.54 316.559 1572.8 302.935C1567.83 291.092 1568.74 280.442 1552.72 275.144C1540.93 271.244 1532.38 267.259 1527.68 254.794C1519.95 234.373 1523.83 231.025 1503.77 226.019C1498.96 224.827 1495.1 224.17 1494.39 218.71C1493.85 214.615 1496.69 211.058 1500.73 211.775C1519.48 215.059 1531.14 218.246 1538.53 247.21Z" fill="#FFCE01"/>
<path d="M128.026 851.401C153.525 857.385 155.533 860.669 157.381 849.36C157.921 845.919 155.899 844.423 153.994 842.971C151.158 840.774 148.331 840.961 153.096 831.773C155.837 826.494 172.998 834.835 171.005 849.677C167.079 878.688 149.093 870.043 129.532 864.885C123.537 863.341 120.032 867.562 121.94 870.246C128.309 879.235 146.308 890.107 138.859 902.668C124.633 926.539 101.567 898.969 93.2929 908.522C85.8823 917.109 105.212 923.333 109.024 931.484C110.517 934.712 106.716 936.896 105.101 936.407C90.4883 931.924 74.3543 921.152 79.9838 906.982C89.6995 882.41 110.043 898.644 122.599 900.119C125.53 900.452 128.532 897.09 126.003 893.908C116.461 882.035 101.217 872.047 110.431 860.298C115.768 853.274 121.11 851.418 128.026 851.401Z" fill="#FFCE01"/>
</svg>
