<svg width="33" height="33" viewBox="0 0 33 33" fill="none" xmlns="http://www.w3.org/2000/svg">
<path d="M20.5029 23.9917C20.4048 26.461 18.3469 28.5578 15.5901 28.4903C14.9487 28.4746 14.156 28.2511 12.5706 27.8039C8.75503 26.7276 5.44274 24.9188 4.64804 20.8668C4.50195 20.1221 4.50195 19.2839 4.50195 17.6077V15.3747C4.50195 13.6985 4.50195 12.8604 4.64804 12.1156C5.44274 8.06356 8.75503 6.2548 12.5706 5.17856C14.156 4.73134 14.9487 4.50774 15.5901 4.49206C18.3469 4.42462 20.4048 6.52136 20.5029 8.99076" stroke="black" strokeWidth="2.00012" strokeLinecap="round"/>
<path d="M28.5015 16.4915H13.834M28.5015 16.4915C28.5015 15.5578 25.8423 13.8134 25.168 13.158M28.5015 16.4915C28.5015 17.4252 25.8423 19.1697 25.168 19.825" stroke="black" strokeWidth="2.00012" strokeLinecap="round" strokeLinejoin="round"/>
</svg>
