<svg width="37" height="23" viewBox="0 0 37 23" fill="none" xmlns="http://www.w3.org/2000/svg">
<g id="Group">
<path id="Vector" d="M23.6988 2.6377H13.0957V19.9323H23.6988V2.6377Z" fill="#FF5F00"/>
<path id="Vector_2" d="M14.1655 11.2852C14.1659 9.62141 14.5426 7.9793 15.2676 6.48179C15.9925 4.98428 17.0468 3.67018 18.3516 2.63788C16.7289 1.36208 14.7801 0.568586 12.7277 0.348098C10.6754 0.127611 8.60245 0.489028 6.74583 1.39104C4.88921 2.29304 3.32385 3.69924 2.22868 5.44889C1.13351 7.19853 0.552734 9.22102 0.552734 11.2852C0.552734 13.3493 1.13351 15.3718 2.22868 17.1214C3.32385 18.8711 4.88921 20.2773 6.74583 21.1793C8.60245 22.0813 10.6754 22.4427 12.7277 22.2222C14.7801 22.0017 16.7289 21.2082 18.3516 19.9324C17.0468 18.9001 15.9925 17.586 15.2676 16.0885C14.5426 14.591 14.1659 12.9489 14.1655 11.2852Z" fill="#EB001B"/>
<path id="Vector_3" d="M36.1648 11.285C36.1663 13.3476 35.5872 15.369 34.4938 17.118C33.4005 18.867 31.8369 20.273 29.982 21.1751C28.1271 22.0772 26.0558 22.4391 24.0049 22.2193C21.954 21.9995 20.0064 21.207 18.3848 19.9323C19.6898 18.9002 20.7444 17.5862 21.4694 16.0886C22.1943 14.591 22.5709 12.9488 22.5709 11.285C22.5709 9.62116 22.1943 7.97892 21.4694 6.48135C20.7444 4.98379 19.6898 3.66974 18.3848 2.6377C20.0064 1.36301 21.954 0.570446 24.0049 0.350657C26.0558 0.130868 28.1271 0.492729 29.982 1.39485C31.8369 2.29698 33.4005 3.70294 34.4938 5.45194C35.5872 7.20094 36.1663 9.22235 36.1648 11.285Z" fill="#F79E1B"/>
</g>
</svg>
