<svg width="33" height="33" viewBox="0 0 33 33" fill="none" xmlns="http://www.w3.org/2000/svg">
<path d="M10.1572 4.54457L11.43 4.20546C15.0297 3.24631 16.8297 2.76676 18.2476 3.58081C19.6657 4.39487 20.1479 6.18464 21.1125 9.76418L22.4766 14.8264C23.4412 18.4059 23.9235 20.1957 23.1048 21.6057C22.2862 23.0158 20.4862 23.4952 16.8864 24.4544L15.6136 24.7936C12.0138 25.7526 10.2139 26.2322 8.79593 25.4182C7.37798 24.6041 6.89559 22.8143 5.93109 19.2348L4.567 14.1726C3.60236 10.593 3.12011 8.80324 3.93875 7.39325C4.75739 5.98327 6.55734 5.5037 10.1572 4.54457Z" stroke="black" stroke-width="1.99994"/>
<path d="M10.3841 10.411C10.3841 11.4967 11.2692 12.3768 12.361 12.3768C13.4528 12.3768 14.3379 11.4967 14.3379 10.411C14.3379 9.32539 13.4528 8.44531 12.361 8.44531C11.2692 8.44531 10.3841 9.32539 10.3841 10.411Z" stroke="black" stroke-width="1.99994"/>
<path d="M16.8565 28.4275L18.1262 28.7732C21.7177 29.7512 23.5134 30.2402 24.928 29.4101C26.3427 28.5801 26.8238 26.7553 27.7862 23.1055L29.1471 17.9439C30.1094 14.2942 30.5905 12.4693 29.7738 11.0317C29.0673 9.78807 27.5229 9.83335 25.5229 9.83319" stroke="black" stroke-width="1.99994" stroke-linecap="round"/>
</svg>
