<svg width="61" height="16" viewBox="0 0 61 16" fill="none" xmlns="http://www.w3.org/2000/svg">
<g id="Group 368">
<path id="Vector" d="M10.8262 0.776417C10.074 0.259264 9.09233 6.10352e-05 7.88131 6.10352e-05H3.1929C2.82165 6.10352e-05 2.61655 0.18573 2.57759 0.556622L0.67297 12.5119C0.653176 12.6293 0.682554 12.7367 0.760834 12.8343C0.838667 12.9322 0.936562 12.9808 1.0538 12.9808H3.28077C3.67136 12.9808 3.88605 12.7956 3.92546 12.4241L4.45283 9.20107C4.47208 9.04486 4.54078 8.91786 4.65802 8.82005C4.77517 8.72243 4.9217 8.65848 5.09752 8.62928C5.27334 8.60026 5.43912 8.58566 5.59569 8.58566C5.7518 8.58566 5.93729 8.59551 6.15252 8.61495C6.3672 8.63447 6.50406 8.64397 6.56273 8.64397C8.24262 8.64397 9.56121 8.17061 10.5186 7.22291C11.4755 6.27558 11.9545 4.96192 11.9545 3.28166C11.9545 2.12913 11.5781 1.29402 10.8262 0.776058V0.776417ZM8.40886 4.36621C8.31087 5.05005 8.05722 5.49913 7.64701 5.71409C7.23671 5.92932 6.65068 6.03626 5.88892 6.03626L4.92188 6.06564L5.42014 2.93021C5.45901 2.71552 5.58592 2.60804 5.80097 2.60804H6.35789C7.1389 2.60804 7.70577 2.72062 8.0574 2.94489C8.40886 3.1697 8.5261 3.64369 8.40886 4.36621Z" fill="#003087"/>
<path id="Vector_2" d="M60.3036 6.10352e-05H58.1354C57.92 6.10352e-05 57.7932 0.107541 57.7545 0.32241L55.8497 12.5123L55.8203 12.5709C55.8203 12.6691 55.8595 12.7614 55.9377 12.8493C56.0155 12.937 56.1135 12.9811 56.2307 12.9811H58.1649C58.5355 12.9811 58.7407 12.7959 58.7803 12.4244L60.6849 0.43965V0.410542C60.6847 0.137097 60.5574 0.000330268 60.3036 0.000330268V6.10352e-05Z" fill="#009CDE"/>
<path id="Vector_3" d="M34.1074 4.71821C34.1074 4.62076 34.0682 4.52779 33.9904 4.44002C33.9121 4.35215 33.8241 4.308 33.7267 4.308H31.4704C31.2551 4.308 31.0794 4.40616 30.9429 4.60097L27.8368 9.17241L26.5476 4.77697C26.4494 4.46456 26.2348 4.308 25.9029 4.308H23.705C23.6071 4.308 23.5191 4.35206 23.4415 4.44002C23.3631 4.52779 23.3242 4.62085 23.3242 4.71821C23.3242 4.75762 23.5147 5.33362 23.8956 6.4471C24.2764 7.56076 24.6867 8.7622 25.1263 10.0516C25.5659 11.3408 25.7952 12.0248 25.8149 12.1025C24.2129 14.2906 23.4122 15.4628 23.4122 15.6188C23.4122 15.873 23.5391 15.9998 23.7931 15.9998H26.0493C26.2642 15.9998 26.4399 15.9024 26.5769 15.7069L34.0491 4.92314C34.0879 4.88435 34.1074 4.81628 34.1074 4.71812V4.71821Z" fill="#003087"/>
<path id="Vector_4" d="M55.1172 4.30812H52.8902C52.6165 4.30812 52.4509 4.63046 52.3923 5.27516C51.8838 4.49414 50.9565 4.10292 49.6083 4.10292C48.2018 4.10292 47.0051 4.63046 46.0188 5.68537C45.0321 6.74036 44.5391 7.98103 44.5391 9.40692C44.5391 10.5597 44.8759 11.4778 45.5498 12.1612C46.2237 12.8454 47.1272 13.1869 48.2606 13.1869C48.8269 13.1869 49.4032 13.0694 49.9892 12.8352C50.5754 12.6008 51.034 12.2884 51.3667 11.8976C51.3667 11.9172 51.3468 12.0049 51.3081 12.1611C51.2687 12.3176 51.2494 12.4351 51.2494 12.5127C51.2494 12.8256 51.3761 12.9815 51.6304 12.9815H53.6525C54.0231 12.9815 54.2383 12.7963 54.2967 12.4247L55.4982 4.77681C55.5175 4.65957 55.4883 4.55227 55.4104 4.45447C55.3319 4.35711 55.2345 4.30812 55.1172 4.30812ZM51.2933 10.0808C50.7951 10.5692 50.1944 10.8134 49.4912 10.8134C48.9245 10.8134 48.4658 10.6573 48.114 10.3446C47.7622 10.0326 47.5864 9.6028 47.5864 9.05519C47.5864 8.33293 47.8306 7.7221 48.3191 7.22393C48.8069 6.72577 49.4131 6.47668 50.1359 6.47668C50.6824 6.47668 51.1367 6.6379 51.4983 6.96007C51.8595 7.28242 52.0406 7.72702 52.0406 8.29352C52.0406 8.99671 51.7914 9.59268 51.2933 10.0808Z" fill="#009CDE"/>
<path id="Vector_5" d="M21.8293 4.30812H19.6024C19.3285 4.30812 19.1628 4.63046 19.1041 5.27516C18.5767 4.49414 17.6487 4.10292 16.3203 4.10292C14.9138 4.10292 13.7171 4.63046 12.7307 5.68537C11.744 6.74036 11.251 7.98103 11.251 9.40692C11.251 10.5597 11.588 11.4778 12.262 12.1612C12.936 12.8454 13.8392 13.1869 14.9724 13.1869C15.5191 13.1869 16.086 13.0694 16.6719 12.8352C17.258 12.6008 17.7269 12.2884 18.0785 11.8976C18.0001 12.1319 17.9612 12.3371 17.9612 12.5127C17.9612 12.8256 18.0882 12.9815 18.3422 12.9815H20.364C20.7349 12.9815 20.9501 12.7963 21.0087 12.4247L22.2101 4.77681C22.2293 4.65957 22.2 4.55227 22.1222 4.45447C22.044 4.35711 21.9465 4.30812 21.8293 4.30812ZM18.0053 10.0953C17.5071 10.5746 16.8963 10.8134 16.174 10.8134C15.6071 10.8134 15.1529 10.6573 14.8113 10.3446C14.4693 10.0326 14.2985 9.6028 14.2985 9.05519C14.2985 8.33293 14.5425 7.7221 15.0311 7.22393C15.5191 6.72577 16.1248 6.47668 16.8479 6.47668C17.3946 6.47668 17.8488 6.6379 18.2105 6.96016C18.5716 7.28251 18.7526 7.72711 18.7526 8.29361C18.7526 9.01632 18.5035 9.61722 18.0053 10.0953Z" fill="#003087"/>
<path id="Vector_6" d="M44.1144 0.776417C43.3622 0.259264 42.3808 6.10352e-05 41.1696 6.10352e-05H36.5104C36.1195 6.10352e-05 35.9045 0.18573 35.8658 0.556622L33.9611 12.5119C33.9413 12.6294 33.9706 12.7368 34.0489 12.8344C34.1264 12.9322 34.2247 12.9808 34.3419 12.9808H36.7446C36.979 12.9808 37.1352 12.854 37.2135 12.6L37.741 9.20107C37.7604 9.04486 37.8288 8.91786 37.9461 8.82005C38.0634 8.72243 38.2097 8.65857 38.3857 8.62928C38.5614 8.60026 38.7271 8.58566 38.8839 8.58566C39.04 8.58566 39.2255 8.59551 39.4404 8.61495C39.6553 8.63447 39.7925 8.64397 39.8506 8.64397C41.5309 8.64397 42.8492 8.17061 43.8066 7.22291C44.7639 6.27558 45.2424 4.96192 45.2424 3.28166C45.2426 2.12922 44.8663 1.29411 44.1144 0.776148V0.776417ZM41.1109 5.59685C40.6811 5.88982 40.0364 6.03626 39.177 6.03626L38.2393 6.06564L38.7374 2.93021C38.7761 2.71552 38.903 2.60804 39.1183 2.60804H39.6455C40.0753 2.60804 40.4171 2.62756 40.6714 2.66652C40.925 2.70593 41.1696 2.82765 41.404 3.03276C41.6385 3.23795 41.7556 3.53594 41.7556 3.92663C41.7556 4.74705 41.5405 5.3037 41.1109 5.59685Z" fill="#009CDE"/>
</g>
</svg>
