<?xml version="1.0" standalone="no"?>
<!DOCTYPE svg PUBLIC "-//W3C//DTD SVG 20010904//EN"
 "http://www.w3.org/TR/2001/REC-SVG-20010904/DTD/svg10.dtd">
<svg version="1.0" xmlns="http://www.w3.org/2000/svg"
 width="720.000000pt" height="720.000000pt" viewBox="0 0 720.000000 720.000000"
 preserveAspectRatio="xMidYMid meet">

<g transform="translate(0.000000,720.000000) scale(0.100000,-0.100000)"
fill="#000000" stroke="none">
<path d="M1230 6263 c-28 -10 -66 -37 -101 -72 -99 -99 -90 175 -87 -2576 l3
-2420 30 -54 c17 -31 51 -71 78 -93 94 -73 -52 -69 1972 -66 l1820 3 47 24
c61 30 120 89 150 149 l23 47 3 779 2 779 74 -104 73 -104 -37 -43 c-62 -69
-74 -166 -33 -246 13 -24 678 -985 747 -1079 11 -15 44 -39 73 -53 45 -22 63
-26 118 -22 62 4 71 8 168 74 74 52 110 83 131 118 39 62 46 136 19 197 -29
64 -727 1066 -777 1116 -62 60 -138 75 -241 48 -16 -4 -33 15 -94 105 l-75
111 36 29 c51 42 150 168 193 244 83 149 123 288 131 461 12 226 -43 424 -171
620 -49 76 -216 241 -283 280 l-51 30 -3 755 c-3 743 -3 756 -24 801 -31 67
-78 114 -146 149 l-61 30 -1831 -1 c-1645 0 -1836 -2 -1876 -16z m3701 -186
c19 -13 39 -38 46 -57 9 -26 12 -213 12 -706 1 -369 -1 -673 -4 -676 -3 -3
-36 4 -73 15 -56 17 -96 21 -247 21 -213 1 -287 -14 -450 -94 -119 -58 -205
-121 -300 -221 -118 -124 -190 -251 -241 -424 -38 -127 -45 -337 -16 -476 75
-365 343 -661 697 -772 170 -53 369 -60 543 -17 46 11 85 20 88 20 2 0 3 -323
2 -718 -3 -792 0 -746 -65 -789 -26 -17 -124 -18 -1823 -18 -1715 0 -1796 1
-1822 18 -63 43 -58 -149 -58 2452 0 2615 -5 2404 63 2445 31 20 64 20 1823
20 l1791 0 34 -23z m-56 -1606 c196 -56 364 -175 475 -336 129 -187 176 -445
122 -666 -128 -526 -705 -795 -1187 -554 -166 83 -285 201 -370 367 -231 447
-11 1002 465 1170 145 52 353 60 495 19z m1098 -2516 c242 -349 363 -531 360
-543 -2 -10 -40 -43 -84 -72 -64 -43 -84 -52 -97 -44 -9 6 -180 244 -379 530
-264 377 -362 526 -360 543 3 34 150 135 176 121 10 -5 183 -246 384 -535z"/>
<path d="M1538 5664 c-53 -29 -64 -94 -24 -141 l24 -28 1530 -3 1530 -2 31 26
c42 35 44 98 5 135 l-26 24 -1521 2 c-1330 2 -1525 0 -1549 -13z"/>
<path d="M1544 5030 c-73 -29 -71 -138 3 -169 21 -8 418 -11 1545 -9 l1516 3
26 24 c36 34 36 98 0 132 l-26 24 -1521 2 c-845 1 -1532 -2 -1543 -7z"/>
<path d="M1519 4371 c-56 -57 -28 -141 52 -156 19 -3 479 -5 1022 -3 l989 3
29 33 c32 35 35 57 17 97 -26 57 20 55 -1073 55 l-1007 0 -29 -29z"/>
<path d="M1519 3731 c-38 -38 -40 -91 -4 -126 l24 -25 941 0 c655 0 947 3 962
11 31 17 50 71 37 108 -22 64 24 61 -999 61 l-932 0 -29 -29z"/>
<path d="M1519 3091 c-38 -39 -40 -88 -3 -125 l27 -26 1019 0 1020 0 30 30
c26 27 30 36 25 68 -4 22 -17 46 -32 60 l-26 22 -1015 0 -1016 0 -29 -29z"/>
<path d="M1516 2454 c-35 -35 -35 -82 0 -123 l26 -31 1534 0 1535 0 24 25 c19
18 25 35 25 65 0 30 -6 47 -25 65 l-24 25 -1534 0 -1534 0 -27 -26z"/>
<path d="M1515 1814 c-35 -38 -34 -87 4 -125 l29 -29 1530 0 1529 0 27 25 c36
33 37 95 1 130 l-24 25 -1536 0 -1536 0 -24 -26z"/>
<path d="M4472 4370 c-89 -23 -228 -94 -249 -127 -21 -31 -8 -72 28 -92 24
-13 30 -12 65 7 136 77 221 102 339 102 177 0 305 -56 438 -192 78 -80 91 -89
120 -86 38 4 63 41 54 79 -4 14 -32 53 -63 87 -100 111 -232 191 -375 226 -91
22 -262 21 -357 -4z"/>
<path d="M155 1729 c-7 -19 -7 -20 -21 -2 -16 21 -18 10 -4 -18 13 -24 65 -26
74 -3 7 19 -10 44 -30 44 -7 0 -16 -9 -19 -21z m35 -14 c0 -8 -4 -15 -9 -15
-13 0 -22 16 -14 24 11 11 23 6 23 -9z"/>
<path d="M132 1661 c-19 -12 -11 -45 11 -49 12 -3 20 4 24 19 6 21 7 21 19 4
8 -10 16 -16 19 -14 7 8 -34 49 -48 49 -7 0 -18 -4 -25 -9z m28 -26 c0 -8 -7
-15 -15 -15 -8 0 -15 7 -15 15 0 8 7 15 15 15 8 0 15 -7 15 -15z"/>
<path d="M148 1583 c-34 -5 -35 -17 -6 -37 30 -22 48 -20 48 4 0 11 6 20 13
20 8 0 7 4 -3 10 -8 5 -17 9 -20 8 -3 0 -17 -3 -32 -5z m22 -29 c0 -14 -3 -14
-15 -4 -8 7 -15 14 -15 16 0 2 7 4 15 4 8 0 15 -7 15 -16z"/>
<path d="M121 1488 c-1 -21 4 -28 18 -28 10 0 21 9 24 20 3 11 10 20 16 20 6
0 11 -9 11 -20 0 -11 5 -20 10 -20 11 0 13 11 4 34 -9 23 -45 20 -51 -4 -7
-27 -21 -25 -26 3 -4 19 -4 18 -6 -5z"/>
<path d="M132 1431 c-8 -5 -12 -17 -10 -27 5 -26 73 -33 82 -8 13 34 -37 58
-72 35z m58 -27 c0 -11 -8 -14 -27 -12 -39 4 -42 28 -4 28 21 0 31 -5 31 -16z"/>
<path d="M148 1353 c-34 -5 -35 -17 -6 -37 30 -22 48 -20 48 4 0 11 6 20 13
20 8 0 7 4 -3 10 -8 5 -17 9 -20 8 -3 0 -17 -3 -32 -5z m22 -29 c0 -14 -3 -14
-15 -4 -8 7 -15 14 -15 16 0 2 7 4 15 4 8 0 15 -7 15 -16z"/>
<path d="M124 1265 c-10 -26 4 -45 34 -45 16 0 35 7 42 15 18 21 -4 45 -42 45
-16 0 -31 -6 -34 -15z m61 -15 c0 -18 -33 -26 -48 -11 -9 9 -8 14 3 21 21 14
45 8 45 -10z"/>
<path d="M124 1185 c-10 -26 4 -45 34 -45 16 0 35 7 42 15 18 21 -4 45 -42 45
-16 0 -31 -6 -34 -15z m61 -15 c0 -18 -33 -26 -47 -12 -6 6 -7 15 -3 22 10 16
50 8 50 -10z"/>
<path d="M120 1109 c0 -20 31 -49 52 -49 22 0 40 24 32 44 -9 24 -45 20 -51
-5 -6 -21 -6 -21 -19 2 -9 16 -13 19 -14 8z m70 -13 c0 -8 -4 -17 -9 -21 -12
-7 -24 12 -16 25 9 15 25 12 25 -4z"/>
<path d="M130 1040 c-13 -9 -13 -10 0 -10 12 0 12 -2 1 -9 -18 -11 1 -24 44
-28 23 -2 26 0 15 7 -13 9 -13 11 0 20 10 6 11 10 3 10 -20 0 -28 -4 -25 -12
1 -5 -2 -8 -7 -8 -5 0 -11 9 -13 20 -2 15 -7 17 -18 10z"/>
<path d="M133 923 c20 -2 54 -2 75 0 20 2 3 4 -38 4 -41 0 -58 -2 -37 -4z"/>
<path d="M187 853 c-14 -14 -19 -14 -34 -3 -15 12 -16 12 -5 0 19 -22 15 -28
-20 -33 -18 -2 -6 -4 27 -4 33 0 52 1 43 4 -23 6 -23 12 -1 29 10 7 15 15 12
18 -3 3 -13 -2 -22 -11z"/>
<path d="M142 776 c4 -28 33 -43 52 -27 18 15 22 41 6 41 -5 0 -10 -7 -10 -15
0 -21 -27 -19 -40 3 -10 16 -11 16 -8 -2z"/>
<path d="M149 714 c-9 -11 -10 -20 -2 -32 14 -22 43 -22 57 1 9 15 7 21 -8 33
-25 18 -31 18 -47 -2z m46 -19 c0 -5 -10 -11 -22 -13 -16 -2 -23 2 -23 13 0
11 7 15 23 13 12 -2 22 -7 22 -13z"/>
<path d="M129 639 c-6 -3 -5 -10 3 -16 14 -11 78 2 78 16 0 9 -67 9 -81 0z"/>
<path d="M111 582 c-1 -32 28 -40 50 -14 21 27 29 28 29 2 0 -11 5 -20 11 -20
6 0 9 10 7 22 -4 32 -37 35 -59 7 l-18 -24 -10 25 c-10 25 -10 25 -10 2z"/>
<path d="M144 486 c-3 -9 -4 -23 0 -31 7 -20 52 -19 60 1 9 23 7 34 -4 34 -5
0 -9 -3 -9 -7 4 -24 -4 -34 -10 -14 -8 30 -29 39 -37 17z m26 -16 c0 -5 -4
-10 -10 -10 -5 0 -10 5 -10 10 0 6 5 10 10 10 6 0 10 -4 10 -10z"/>
<path d="M143 400 c-3 -11 -14 -20 -24 -20 -11 0 -19 -4 -19 -10 0 -5 23 -10
50 -10 54 0 73 17 50 45 -18 22 -51 19 -57 -5z m47 -5 c0 -8 -9 -15 -20 -15
-20 0 -26 11 -13 23 12 13 33 7 33 -8z"/>
<path d="M155 336 c-22 -16 -15 -50 11 -54 25 -4 47 19 38 41 -8 22 -29 28
-49 13z m39 -15 c3 -5 0 -13 -7 -19 -15 -13 -42 1 -33 17 9 13 33 15 40 2z"/>
<path d="M116 253 c12 -2 24 -13 27 -24 7 -26 35 -35 54 -16 29 29 9 47 -49
46 -29 -1 -43 -4 -32 -6z m77 -18 c-4 -15 -36 -12 -41 3 -3 9 3 13 19 10 13
-1 23 -7 22 -13z"/>
<path d="M151 176 c-19 -7 -36 -17 -38 -23 -4 -11 86 -47 95 -38 3 2 -3 7 -12
11 -21 8 -21 33 2 50 22 17 1 17 -47 0z m19 -26 c0 -5 -6 -10 -14 -10 -8 0
-18 5 -21 10 -3 6 3 10 14 10 12 0 21 -4 21 -10z"/>
</g>
</svg>
