<svg width="33" height="33" viewBox="0 0 33 33" fill="none" xmlns="http://www.w3.org/2000/svg">
<path d="M20.7234 16.4589C20.7234 19.0366 18.6338 21.1263 16.0561 21.1263C13.4783 21.1263 11.3887 19.0366 11.3887 16.4589C11.3887 13.8812 13.4783 11.7915 16.0561 11.7915C18.6338 11.7915 20.7234 13.8812 20.7234 16.4589Z" stroke="black" stroke-width="2.00031"/>
<path d="M27.7806 12.6605C28.8558 14.5138 29.3934 15.4404 29.3934 16.4584C29.3934 17.4764 28.8558 18.4029 27.7806 20.2563L25.2153 24.678C24.1443 26.5239 23.6089 27.447 22.7282 27.9536C21.8477 28.4602 20.779 28.4602 18.6415 28.4602H13.4746C11.3371 28.4602 10.2683 28.4602 9.38777 27.9536C8.50719 27.447 7.97171 26.5239 6.90077 24.678L4.33546 20.2563C3.26026 18.4029 2.72266 17.4764 2.72266 16.4584C2.72266 15.4404 3.26026 14.5138 4.33546 12.6605L6.90077 8.23873C7.97171 6.39278 8.50719 5.46982 9.38777 4.96318C10.2683 4.45654 11.3371 4.45654 13.4746 4.45654H18.6415C20.779 4.45654 21.8477 4.45654 22.7282 4.96318C23.6089 5.46982 24.1443 6.3928 25.2153 8.23875L27.7806 12.6605Z" stroke="black" stroke-width="2.00031"/>
</svg>
