<svg width="27" height="27" viewBox="0 0 27 27" fill="none" xmlns="http://www.w3.org/2000/svg">
<path d="M13.3647 26.1182C9.26381 25.9755 5.83845 24.3877 3.29797 21.0981C1.35694 18.569 0.652835 15.6692 0.995371 12.5031C1.12858 11.2766 1.51869 10.1261 1.91832 8.9662C2.51775 7.2453 2.89835 5.46736 3.14574 3.66089C3.23137 3.00485 3.317 2.35833 3.40264 1.70229C3.45973 1.30297 3.67857 1.03675 4.04965 0.894135C4.42073 0.751519 4.73472 0.87512 5.01066 1.12232C5.95263 1.97802 6.8946 2.83371 7.83658 3.68941C8.18863 4.01267 8.18863 4.02218 8.62631 3.81301C10.0821 3.13796 11.614 2.78617 13.222 2.75765C15.0203 2.72913 16.733 3.09993 18.3601 3.87956C18.5503 3.96513 18.6645 3.95563 18.8263 3.81301C19.7112 2.98584 20.6151 2.16817 21.5095 1.35051C21.6998 1.17937 21.8996 0.998721 22.1375 0.894135C22.6703 0.656442 23.2793 1.03675 23.3649 1.64525C23.4886 2.4534 23.5932 3.27107 23.7074 4.07923C23.9548 5.78111 24.3544 7.44496 24.8968 9.0803C25.2013 9.98353 25.4772 10.8963 25.6675 11.828C26.0481 13.682 25.8958 15.517 25.363 17.333C24.4781 20.3279 22.6513 22.5813 20.0252 24.2166C18.3886 25.2339 16.5998 25.8139 14.6873 26.0041C14.2686 26.0421 13.85 26.0611 13.3933 26.0991L13.3647 26.1182ZM22.5085 19.9762C21.9281 19.729 21.3953 19.5008 20.8625 19.2821C20.3962 19.0824 20.1869 18.6736 20.3582 18.2553C20.5199 17.8464 20.9576 17.6943 21.4238 17.8845C21.7759 18.0271 22.1184 18.1792 22.4705 18.3218C22.7369 18.4359 23.0033 18.5405 23.2602 18.6451C23.5457 18.1887 24.0214 16.8101 24.0119 16.5153C23.6218 16.5153 23.2317 16.5153 22.8416 16.5153C22.2326 16.5153 21.6237 16.5153 21.0242 16.5153C20.6436 16.5153 20.3867 16.2586 20.3391 15.9164C20.263 15.3934 20.577 15.0416 21.1574 15.0416C22.0804 15.0416 23.0128 15.0416 23.9358 15.0416C24.402 15.0416 24.3544 15.1367 24.3925 14.6043C24.4972 13.064 24.2212 11.5808 23.6979 10.1452C22.9843 8.17706 22.48 6.16142 22.2041 4.08873C22.1565 3.69892 22.0994 3.29959 22.0423 2.88125C21.9472 2.95731 21.871 3.01436 21.8044 3.08091C21.3953 3.45172 20.9862 3.83203 20.577 4.20283C20.1203 4.62117 19.6731 5.03 19.2069 5.43883C18.8453 5.75259 18.7406 5.75259 18.3125 5.53391C17.9414 5.34376 17.5608 5.1536 17.1802 4.96345C17.1041 4.92542 17.028 4.9064 16.9233 4.86837C16.9233 5.42933 16.9233 5.94274 16.9233 6.46567C16.9233 6.95056 16.5712 7.28333 16.1241 7.25481C15.7054 7.22629 15.439 6.89352 15.439 6.39911C15.439 5.75259 15.439 5.11557 15.439 4.45003C14.0783 4.1648 12.7177 4.15529 11.3381 4.45003C11.3381 4.60215 11.3381 4.75428 11.3381 4.89689C11.3381 5.44834 11.3476 5.99028 11.3381 6.54173C11.3285 6.96007 11.005 7.2453 10.5769 7.23579C10.1963 7.23579 9.90131 6.95056 9.87277 6.55124C9.86325 6.36108 9.87277 6.17093 9.87277 5.97127C9.87277 5.61948 9.87277 5.26769 9.87277 4.86837C9.71101 4.93492 9.58732 4.97295 9.46362 5.03951C9.12109 5.21065 8.77855 5.38179 8.43602 5.55293C8.08397 5.73357 7.95076 5.71456 7.6558 5.45785C6.88509 4.76378 6.11438 4.06972 5.34368 3.37565C5.16289 3.21402 4.98211 3.05239 4.77278 2.87174C4.72521 3.25205 4.67763 3.58482 4.63957 3.9176C4.41122 5.54342 4.09723 7.15023 3.60245 8.719C3.30749 9.65076 2.9935 10.5825 2.71757 11.5333C2.41309 12.6077 2.37503 13.7011 2.43212 14.8135C2.44163 14.9941 2.50824 15.0607 2.68902 15.0416C2.88883 15.0226 3.08865 15.0416 3.28846 15.0416C4.11626 15.0416 4.94405 15.0226 5.77185 15.0416C6.34274 15.0607 6.6377 15.6882 6.33323 16.1636C6.17147 16.4203 5.92409 16.5153 5.62912 16.5153C4.77278 16.5153 3.92596 16.5153 3.06962 16.5153C2.96495 16.5153 2.86029 16.5153 2.66999 16.5153C2.95544 17.2665 3.21234 17.9605 3.47876 18.6736C3.64051 18.607 3.75469 18.569 3.85935 18.5215C4.34461 18.3123 4.82036 18.0936 5.30562 17.9035C5.4864 17.8369 5.71476 17.7989 5.90506 17.8274C6.20953 17.8654 6.42837 18.1317 6.45692 18.4169C6.49498 18.7497 6.37128 19.0349 6.05729 19.187C5.7433 19.3486 5.41028 19.4722 5.07726 19.6149C4.82036 19.7194 4.56346 19.8335 4.25898 19.9571C6.54255 22.838 9.41605 24.4923 13.0983 24.5969C17.0184 24.7015 20.1203 23.0852 22.5371 19.9667L22.5085 19.9762Z" fill="#282828" stroke="black" stroke-width="0.4"/>
</svg>
