<svg width="190" height="203" viewBox="0 0 190 203" fill="none" xmlns="http://www.w3.org/2000/svg">
<path d="M0.09375 -173.044C0.0931477 -70.4142 5.58632 -8.25723 16.5715 15.5452C87.9779 215.12 206.689 229.484 300.703 171.195C392.251 114.435 379.629 64.4723 454.173 -19.2426C649.312 -238.391 596.512 -266.497 534.259 -358.045C472.007 -449.593 265.037 -470.796 135.585 -414.731C38.6299 -372.739 0.0944446 -291.378 0.09375 -173.044Z" fill="#0061EF"/>
<path d="M50.4734 74.0989C85.6638 66.4163 90.1026 69.3018 85.6942 54.1716C84.3252 49.5814 80.9292 48.9233 77.7053 48.2495C72.8835 47.2027 69.4855 49.1111 69.9549 34.8839C70.2287 26.7089 96.468 26.8914 102.79 46.4922C115.109 84.8222 87.6642 84.7509 60.332 89.9405C51.9767 91.5776 50.1285 98.892 54.0863 101.093C67.3178 108.474 96.0977 111.301 94.2955 131.304C90.7857 169.359 45.8231 148.811 41.2155 165.57C37.107 180.618 64.7847 176.888 74.3448 184.746C78.1111 187.867 74.6875 192.83 72.3934 193.18C51.6023 196.275 25.196 192.467 23.7862 171.546C21.2832 135.294 56.1496 143.386 72.6062 137.777C76.4411 136.452 78.1742 130.501 73.1511 128.051C54.2725 118.971 29.4362 115.607 33.9091 95.5664C36.3704 83.6872 41.8998 78.2184 50.4734 74.0989Z" fill="#FFA500"/>
</svg>
