<svg width="48" height="49" viewBox="0 0 48 49" fill="none" xmlns="http://www.w3.org/2000/svg">
<g id="Frame">
<path id="Vector" d="M13.875 20.1455C12.4931 20.1557 11.6616 20.1981 10.9993 20.3735C7.98486 21.1717 5.92106 23.8733 6.00232 26.9149C6.02586 27.7959 6.36124 28.8847 7.032 31.0625C8.64628 36.3035 11.3593 40.8533 17.4369 41.9449C18.5541 42.1455 19.8112 42.1455 22.3255 42.1455H25.6745C28.1887 42.1455 29.4459 42.1455 30.5631 41.9449C36.6407 40.8533 39.3537 36.3035 40.9679 31.0625C41.6387 28.8847 41.9741 27.7959 41.9977 26.9149C42.0789 23.8733 40.0151 21.1717 37.0007 20.3735C36.3383 20.1981 35.5069 20.1557 34.1251 20.1455" stroke="#898B90" strokeWidth="3.92719" strokeLinecap="round"/>
<path id="Vector_2" d="M24.0001 6.14551V28.1455M24.0001 6.14551C24.9367 6.14551 25.6487 7.02171 27.0729 8.77411L29.0001 11.1455M24.0001 6.14551C23.0633 6.14551 22.3513 7.02171 20.9271 8.77411L19 11.1455" stroke="#898B90" strokeWidth="3.92719" strokeLinecap="round" strokeLinejoin="round"/>
</g>
</svg>
