<svg width="53" height="16" viewBox="0 0 53 16" fill="none" xmlns="http://www.w3.org/2000/svg">
<g id="Group 367">
<path id="Vector" d="M19.1164 15.8173L21.7578 0.316911H25.9827L23.3394 15.8173H19.1164ZM38.6035 0.651052C37.7667 0.337023 36.455 3.05176e-05 34.817 3.05176e-05C30.6422 3.05176e-05 27.7017 2.10235 27.6765 5.11541C27.653 7.34267 29.7759 8.58525 31.3785 9.32662C33.0231 10.0866 33.5759 10.571 33.568 11.2494C33.5574 12.2884 32.2547 12.7629 31.0402 12.7629C29.3493 12.7629 28.4509 12.528 27.0634 11.9495L26.5188 11.7031L25.926 15.173C26.9128 15.6059 28.7375 15.9806 30.6323 16C35.0735 16 37.9566 13.9217 37.9894 10.704C38.0052 8.9407 36.8796 7.59898 34.442 6.49259C32.9653 5.77553 32.0609 5.29705 32.0705 4.57096C32.0705 3.92667 32.836 3.23772 34.4903 3.23772C35.8717 3.21626 36.8727 3.51754 37.6524 3.83157L38.031 4.01044L38.6035 0.651052ZM49.4758 0.316673H46.2112C45.1999 0.316673 44.4429 0.592697 43.9989 1.60209L37.7242 15.8071H42.1608C42.1608 15.8071 42.886 13.8972 43.0501 13.4777C43.5349 13.4777 47.8448 13.4844 48.4609 13.4844C48.5873 14.0271 48.975 15.8071 48.975 15.8071H52.8954L49.4758 0.316198V0.316673ZM44.2961 10.3259C44.6456 9.4328 45.9794 5.99281 45.9794 5.99281C45.9546 6.03406 46.3263 5.09537 46.5396 4.5134L46.8251 5.84981C46.8251 5.84981 47.6341 9.54983 47.8032 10.3256H44.2961V10.3259ZM15.5298 0.316673L11.3935 10.8873L10.9528 8.73918C10.1827 6.26289 7.78364 3.58002 5.10156 2.23688L8.88378 15.7926L13.3539 15.7876L20.0054 0.316514L15.5298 0.316436" fill="#0E4595"/>
<path id="Vector_2" d="M7.53376 0.316437H0.720994L0.666992 0.638939C5.96725 1.92198 9.47424 5.02261 10.9304 8.7486L9.44898 1.62553C9.19331 0.644006 8.45154 0.351038 7.53392 0.316832" fill="#F2AE14"/>
</g>
</svg>
